<?xml version="1.0" encoding="UTF-8" standalone="no"?>
<!-- Created with Inkscape (http://www.inkscape.org/) -->

<svg
   width="127mm"
   height="127mm"
   viewBox="0 0 127 127"
   version="1.1"
   id="svg1"
   xml:space="preserve"
   inkscape:version="1.3.2 (091e20e, 2023-11-25, custom)"
   sodipodi:docname="bulgan new emblem 2023.svg"
   xmlns:inkscape="http://www.inkscape.org/namespaces/inkscape"
   xmlns:sodipodi="http://sodipodi.sourceforge.net/DTD/sodipodi-0.dtd"
   xmlns="http://www.w3.org/2000/svg"
   xmlns:svg="http://www.w3.org/2000/svg"><sodipodi:namedview
     id="namedview1"
     pagecolor="#ffffff"
     bordercolor="#666666"
     borderopacity="1.0"
     inkscape:showpageshadow="2"
     inkscape:pageopacity="0.0"
     inkscape:pagecheckerboard="0"
     inkscape:deskcolor="#d1d1d1"
     inkscape:document-units="mm"
     inkscape:zoom="1"
     inkscape:cx="94.5"
     inkscape:cy="304.5"
     inkscape:window-width="1920"
     inkscape:window-height="991"
     inkscape:window-x="-9"
     inkscape:window-y="-9"
     inkscape:window-maximized="1"
     inkscape:current-layer="layer1"
     showguides="false" /><defs
     id="defs1" /><g
     inkscape:label="Layer 1"
     inkscape:groupmode="layer"
     id="layer1"
     transform="translate(-33.688301,-72.167542)"><circle
       style="opacity:1;fill:#fecb00;fill-opacity:1;fill-rule:evenodd;stroke:none;stroke-width:0.225853;stroke-linecap:round"
       id="path1"
       cx="97.188301"
       cy="135.66754"
       r="63.5" /><circle
       style="opacity:1;fill:#026e0b;fill-opacity:1;fill-rule:evenodd;stroke:none;stroke-width:0.21409;stroke-linecap:round"
       id="circle2"
       cx="97.188301"
       cy="135.66754"
       r="60.192707" /><path
       id="circle3"
       style="opacity:1;fill:#fecb00;fill-opacity:1;fill-rule:evenodd;stroke:none;stroke-width:0.172365;stroke-linecap:round"
       d="m 126.60054,97.167712 -0.94671,1.038697 a 47.058048,47.058048 0 0 1 18.59266,37.461281 47.058048,47.058048 0 0 1 -38.63692,46.28554 8.815567,8.815567 0 0 1 -0.62528,1.48622 48.461422,48.461422 0 0 0 40.66522,-47.77176 48.461422,48.461422 0 0 0 -19.04897,-38.499978 z m -58.750935,0.08062 A 48.461422,48.461422 0 0 0 48.726742,135.66769 48.461422,48.461422 0 0 0 89.392476,183.43997 8.815567,8.815567 0 0 1 88.734119,181.86435 47.058048,47.058048 0 0 1 50.130273,135.66769 47.058048,47.058048 0 0 1 68.797351,98.288057 Z" /><g
       id="g70"><path
         inkscape:connector-curvature="0"
         id="path1366-8-7-5-1-3-6-2-1-0"
         d="m 97.18831,76.795657 c -1.954037,1.444814 -5.318648,6.272374 -5.318648,9.209714 0,2.937336 2.38131,5.317641 5.318648,5.317635 2.93734,4e-6 5.31865,-2.380299 5.31865,-5.317635 0,-2.93734 -3.364613,-7.764898 -5.31865,-9.209714 z"
         style="opacity:1;fill:#0557ac;fill-opacity:1;stroke:none;stroke-width:0.194956;stroke-linecap:butt;stroke-miterlimit:4;stroke-dasharray:none;stroke-opacity:1;paint-order:normal" /><path
         inkscape:connector-curvature="0"
         id="path1366-8-7-5-8-2-2-9-8-2-8-6-3"
         d="m 97.18831,76.795657 c -1.719713,1.271557 -4.680849,5.520208 -4.680849,8.105318 0,2.5851 2.095744,4.679971 4.680849,4.679964 2.585105,0 4.68085,-2.094864 4.68085,-4.679964 0,-2.58511 -2.961137,-6.833761 -4.68085,-8.105318 z"
         style="opacity:1;fill:#0776e1;fill-opacity:1;stroke:none;stroke-width:0.613786;stroke-linecap:butt;stroke-miterlimit:4;stroke-dasharray:none;stroke-opacity:1;paint-order:normal" /><path
         inkscape:connector-curvature="0"
         id="path1366-8-7-5-8-2-2-2-1-5-4-5"
         d="m 97.18831,76.795657 c -1.485387,1.0983 -4.043061,4.76805 -4.043061,7.000924 0,2.232866 1.810199,4.0423 4.043061,4.042294 2.232862,0 4.04306,-1.809428 4.04306,-4.042294 0,-2.232874 -2.557673,-5.902624 -4.04306,-7.000924 z"
         style="opacity:1;fill:#44a2fc;fill-opacity:1;stroke:none;stroke-width:0.784572;stroke-linecap:butt;stroke-miterlimit:4;stroke-dasharray:none;stroke-opacity:1;paint-order:normal" /><path
         inkscape:connector-curvature="0"
         id="path1366-8-7-5-8-2-5-6-2-3-5"
         d="m 97.18831,76.795657 c -1.251055,0.925045 -3.405271,4.015893 -3.405271,5.896531 0,1.880631 1.524638,3.404627 3.405271,3.404621 1.880633,0 3.40527,-1.52399 3.40527,-3.404621 0,-1.880638 -2.154215,-4.971486 -3.40527,-5.896531 z"
         style="opacity:1;fill:#bddefd;fill-opacity:1;stroke:none;stroke-width:1.32516;stroke-linecap:butt;stroke-miterlimit:4;stroke-dasharray:none;stroke-opacity:1;paint-order:normal" /></g><g
       id="g71"><path
         inkscape:connector-curvature="0"
         id="path5"
         d="m 105.91223,85.254785 c -1.95404,1.444814 -5.31865,6.272374 -5.31865,9.209714 0,2.937336 2.38131,5.317641 5.31865,5.317635 2.93734,4e-6 5.31865,-2.380299 5.31865,-5.317635 0,-2.93734 -3.36461,-7.764898 -5.31865,-9.209714 z"
         style="opacity:1;fill:#9f0b10;fill-opacity:1;stroke:none;stroke-width:0.194956;stroke-linecap:butt;stroke-miterlimit:4;stroke-dasharray:none;stroke-opacity:1;paint-order:normal" /><path
         inkscape:connector-curvature="0"
         id="path6"
         d="m 105.91223,85.254785 c -1.71971,1.271557 -4.68085,5.520208 -4.68085,8.105318 0,2.5851 2.09574,4.679971 4.68085,4.679964 2.5851,0 4.68085,-2.094864 4.68085,-4.679964 0,-2.58511 -2.96114,-6.833761 -4.68085,-8.105318 z"
         style="opacity:1;fill:#d81012;fill-opacity:1;stroke:none;stroke-width:0.613786;stroke-linecap:butt;stroke-miterlimit:4;stroke-dasharray:none;stroke-opacity:1;paint-order:normal" /><path
         inkscape:connector-curvature="0"
         id="path7"
         d="m 105.91223,85.254785 c -1.48539,1.0983 -4.04306,4.76805 -4.04306,7.000924 0,2.232866 1.8102,4.0423 4.04306,4.042294 2.23286,0 4.04306,-1.809428 4.04306,-4.042294 0,-2.232874 -2.55767,-5.902624 -4.04306,-7.000924 z"
         style="opacity:1;fill:#fa4a50;fill-opacity:1;stroke:none;stroke-width:0.784572;stroke-linecap:butt;stroke-miterlimit:4;stroke-dasharray:none;stroke-opacity:1;paint-order:normal" /><path
         inkscape:connector-curvature="0"
         id="path8"
         d="m 105.91223,85.254785 c -1.25106,0.925045 -3.40527,4.015893 -3.40527,5.896531 0,1.880631 1.52463,3.404627 3.40527,3.404621 1.88063,0 3.40527,-1.52399 3.40527,-3.404621 0,-1.880638 -2.15422,-4.971486 -3.40527,-5.896531 z"
         style="opacity:1;fill:#fbc0c2;fill-opacity:1;stroke:none;stroke-width:1.32516;stroke-linecap:butt;stroke-miterlimit:4;stroke-dasharray:none;stroke-opacity:1;paint-order:normal" /></g><g
       id="g72"><path
         inkscape:connector-curvature="0"
         id="path13"
         d="m 88.46439,85.254785 c 1.954037,1.444814 5.318648,6.272374 5.318648,9.209714 0,2.937336 -2.38131,5.317641 -5.318648,5.317635 -2.93734,4e-6 -5.31865,-2.380299 -5.31865,-5.317635 0,-2.93734 3.364613,-7.764898 5.31865,-9.209714 z"
         style="opacity:1;fill:#059a13;fill-opacity:1;stroke:none;stroke-width:0.194956;stroke-linecap:butt;stroke-miterlimit:4;stroke-dasharray:none;stroke-opacity:1;paint-order:normal" /><path
         inkscape:connector-curvature="0"
         id="path14"
         d="m 88.46439,85.254785 c 1.719713,1.271557 4.680849,5.520208 4.680849,8.105318 0,2.5851 -2.095744,4.679971 -4.680849,4.679964 -2.585105,0 -4.68085,-2.094864 -4.68085,-4.679964 0,-2.58511 2.961137,-6.833761 4.68085,-8.105318 z"
         style="opacity:1;fill:#10d728;fill-opacity:1;stroke:none;stroke-width:0.613786;stroke-linecap:butt;stroke-miterlimit:4;stroke-dasharray:none;stroke-opacity:1;paint-order:normal" /><path
         inkscape:connector-curvature="0"
         id="path15"
         d="m 88.46439,85.254785 c 1.485387,1.0983 4.043061,4.76805 4.043061,7.000924 0,2.232866 -1.810199,4.0423 -4.043061,4.042294 -2.232862,0 -4.04306,-1.809428 -4.04306,-4.042294 0,-2.232874 2.557673,-5.902624 4.04306,-7.000924 z"
         style="opacity:1;fill:#40fd56;fill-opacity:1;stroke:none;stroke-width:0.784572;stroke-linecap:butt;stroke-miterlimit:4;stroke-dasharray:none;stroke-opacity:1;paint-order:normal" /><path
         inkscape:connector-curvature="0"
         id="path16"
         d="m 88.46439,85.254785 c 1.251055,0.925045 3.405271,4.015893 3.405271,5.896531 0,1.880631 -1.524638,3.404627 -3.405271,3.404621 -1.880633,0 -3.40527,-1.52399 -3.40527,-3.404621 0,-1.880638 2.154215,-4.971486 3.40527,-5.896531 z"
         style="opacity:1;fill:#bbfec8;fill-opacity:1;stroke:none;stroke-width:1.32516;stroke-linecap:butt;stroke-miterlimit:4;stroke-dasharray:none;stroke-opacity:1;paint-order:normal" /></g><path
       id="path17"
       style="opacity:1;fill:#fecb00;fill-opacity:1;fill-rule:evenodd;stroke:none;stroke-width:0.184496;stroke-linecap:round"
       d="m 97.1883,165.43021 c -0.752646,0 -1.050824,0.8774 -0.865064,1.28571 0.509019,1.1188 0.183665,1.78189 -0.223242,2.63498 0.0031,0.006 0.0057,0.0127 0.0088,0.0191 a 10.077649,10.077649 0 0 0 -5.227588,2.16525 c -0.0024,-0.007 -0.0049,-0.0129 -0.0072,-0.0196 -0.890953,-0.3155 -1.589886,-0.55427 -2.021066,-1.70532 -0.157372,-0.42007 -0.988625,-0.82989 -1.520837,-0.29766 l 2.749186,2.74919 a 10.077649,10.077649 0 0 0 -5.17e-4,5.1e-4 l -2.749186,-2.74918 c -0.532202,0.5322 -0.122417,1.36346 0.297656,1.52083 1.151041,0.43118 1.389826,1.13012 1.705323,2.02107 0.0067,0.002 0.01297,0.005 0.01964,0.007 a 10.077649,10.077649 0 0 0 -2.16576,5.22759 c -0.0064,-0.003 -0.01272,-0.006 -0.01912,-0.009 -0.853088,0.40691 -1.516182,0.73226 -2.634981,0.22324 -0.408318,-0.18576 -1.285718,0.11239 -1.28571,0.86506 h 3.862297 a 10.077649,10.077649 0 0 0 0,5.2e-4 h -3.862297 c 0,0.75265 0.877395,1.05082 1.28571,0.86506 1.118798,-0.50902 1.781893,-0.18366 2.634981,0.22325 0.0062,-0.003 0.01241,-0.005 0.0186,-0.008 a 10.077649,10.077649 0 0 0 2.165759,5.22759 c -0.0067,0.002 -0.01296,0.005 -0.01964,0.007 -0.3155,0.89095 -0.554283,1.58989 -1.705322,2.02107 -0.42008,0.15737 -0.829878,0.98862 -0.297657,1.52083 h 5.17e-4 c 0.53221,0.53221 1.363473,0.12294 1.520837,-0.29714 0.431181,-1.15104 1.130117,-1.38982 2.021066,-1.70532 0.0023,-0.007 0.0049,-0.013 0.0072,-0.0196 a 10.077649,10.077649 0 0 0 5.227072,2.16576 c -0.003,0.006 -0.0053,0.0124 -0.0083,0.0186 0.406905,0.85309 0.732259,1.51618 0.223243,2.63498 -0.185764,0.40832 0.112398,1.28572 0.865063,1.28571 v -3.86178 a 10.077649,10.077649 0 0 0 5.17e-4,0 v 3.86178 c 0.752658,0 1.050835,-0.87739 0.865063,-1.28571 -0.509016,-1.1188 -0.183661,-1.78189 0.223242,-2.63498 -3.39e-4,-7.1e-4 -6.94e-4,-0.001 -10e-4,-0.002 a 10.077649,10.077649 0 0 0 5.226555,-2.16473 c 2.5e-4,7.4e-4 7.7e-4,0.001 0.001,0.002 0.89095,0.3155 1.58988,0.55428 2.02106,1.70532 0.15737,0.42008 0.98863,0.82988 1.52084,0.29766 v -5.2e-4 c 0.53221,-0.53221 0.12295,-1.36346 -0.29714,-1.52083 -1.15104,-0.43118 -1.38982,-1.13012 -1.70532,-2.02107 -7.3e-4,-2.6e-4 -0.001,-7.8e-4 -0.002,-0.001 a 10.077649,10.077649 0 0 0 2.16473,-5.22604 c 7e-4,3.4e-4 0.001,6.9e-4 0.002,0.001 0.85308,-0.40691 1.51618,-0.73226 2.63498,-0.22324 0.40832,0.18577 1.28571,-0.1124 1.28571,-0.86506 h -3.86178 a 10.077649,10.077649 0 0 0 0,-5.2e-4 h 3.86178 c 0,-0.75266 -0.87739,-1.05083 -1.28571,-0.86506 -1.1188,0.50902 -1.7819,0.18366 -2.63498,-0.22325 -0.006,0.003 -0.0124,0.005 -0.0186,0.008 a 10.077649,10.077649 0 0 0 -2.16524,-5.22707 c 0.007,-0.002 0.0126,-0.005 0.0191,-0.007 0.3155,-0.89095 0.55427,-1.5899 1.70532,-2.02107 0.42007,-0.15738 0.82989,-0.98863 0.29766,-1.52084 l -2.74919,2.74867 2.74867,-2.74918 c -0.5322,-0.53221 -1.36347,-0.12293 -1.52084,0.29714 -0.43118,1.15104 -1.13011,1.39034 -2.02106,1.70584 -0.002,0.007 -0.005,0.0126 -0.007,0.0191 a 10.077649,10.077649 0 0 0 -5.227063,-2.16576 c 0.003,-0.006 0.0053,-0.0124 0.0083,-0.0186 -0.406905,-0.85309 -0.732266,-1.51618 -0.223242,-2.63498 0.185755,-0.40832 -0.112389,-1.28572 -0.865063,-1.28571 v 3.8623 a 10.077649,10.077649 0 0 0 -5.17e-4,0 z m -0.607715,6.38618 c -0.04552,0.64109 -0.212144,1.27803 -0.467672,1.91202 0.394099,0.88278 0.556714,1.76603 0.427364,2.64894 a 3.0697806,3.0697806 0 0 0 -1.015958,0.41341 c -0.712541,-0.5325 -1.21969,-1.27012 -1.564246,-2.17041 -0.628927,-0.2676 -1.197105,-0.60056 -1.682585,-1.02164 a 7.6011076,7.6011076 0 0 1 4.303097,-1.78232 z m 1.215946,5.1e-4 a 7.6011076,7.6011076 0 0 1 4.303099,1.78232 c -0.48543,0.42098 -1.05376,0.75358 -1.68259,1.02113 -0.34461,0.90044 -0.852049,1.63841 -1.564759,2.17093 a 3.0697806,3.0697806 0 0 0 -1.016476,-0.42117 c -0.127405,-0.8805 0.03538,-1.76133 0.428398,-2.6417 -0.255449,-0.63382 -0.422098,-1.27059 -0.467672,-1.91151 z m -6.379455,2.64222 c 0.421084,0.48548 0.754047,1.05313 1.021643,1.68207 0.900055,0.34446 1.637941,0.85201 2.17041,1.56424 a 3.0697806,3.0697806 0 0 0 -0.413411,1.01596 c -0.882918,0.12935 -1.766153,-0.0333 -2.648934,-0.42736 -0.633822,0.25545 -1.270598,0.4221 -1.911512,0.46767 a 7.6011076,7.6011076 0 0 1 1.781804,-4.30258 z m 11.542444,0 a 7.6011076,7.6011076 0 0 1 1.78232,4.3031 c -0.64108,-0.0455 -1.27804,-0.21215 -1.91203,-0.46768 -0.88036,0.39303 -1.76119,0.55581 -2.64169,0.4284 a 3.0697806,3.0697806 0 0 0 -0.421169,-1.01647 c 0.532539,-0.71285 1.270909,-1.22012 2.171449,-1.56477 0.2676,-0.62892 0.60004,-1.1971 1.02112,-1.68258 z m -9.424744,5.51542 c 0.220356,-0.003 0.440596,0.0111 0.660942,0.0434 a 3.0697806,3.0697806 0 0 0 0.413411,1.01596 c -0.532504,0.71254 -1.270116,1.21969 -2.17041,1.56425 -0.2676,0.62892 -0.600563,1.1971 -1.021643,1.68258 a 7.6011076,7.6011076 0 0 1 -1.781804,-4.30258 c 0.640915,0.0456 1.277688,0.2117 1.911512,0.46716 0.662467,-0.29575 1.325398,-0.4612 1.987992,-0.47078 z m 7.307564,5.2e-4 c 0.6626,0.01 1.32501,0.17503 1.98747,0.47077 0.63382,-0.25544 1.27061,-0.42209 1.91152,-0.46767 a 7.6011076,7.6011076 0 0 1 -1.78232,4.3031 c -0.42098,-0.48543 -0.75358,-1.05376 -1.02113,-1.68259 -0.90006,-0.34446 -1.63743,-0.852 -2.169889,-1.56424 a 3.0697806,3.0697806 0 0 0 0.412889,-1.01596 c 0.22035,-0.0323 0.4411,-0.0466 0.66146,-0.0434 z m -5.318021,1.97404 a 3.0697806,3.0697806 0 0 0 1.015958,0.41341 c 0.129353,0.88292 -0.03378,1.76616 -0.427881,2.64894 0.255446,0.63381 0.422096,1.2706 0.467672,1.91151 a 7.6011076,7.6011076 0 0 1 -4.30258,-1.78181 c 0.485484,-0.42108 1.05313,-0.75404 1.682068,-1.02164 0.344559,-0.9003 0.85222,-1.63791 1.564763,-2.17041 z m 3.327962,0 c 0.71254,0.5325 1.219689,1.27063 1.564249,2.17093 0.62892,0.2676 1.1971,0.60004 1.68258,1.02112 a 7.6011076,7.6011076 0 0 1 -4.302579,1.78181 c 0.04558,-0.64091 0.211703,-1.2777 0.467155,-1.91151 -0.394099,-0.88278 -0.556717,-1.76603 -0.427364,-2.64894 a 3.0697806,3.0697806 0 0 0 1.015959,-0.41341 z" /><path
       d="M 68.211128,129.1169 H 76.1839 v 1.82034 h -5.700885 v 2.03199 h 2.737554 q 1.792109,0 2.723442,0.74789 0.945444,0.74789 0.945444,2.159 0,1.48167 -1.044222,2.30011 -1.044221,0.81844 -2.94922,0.81844 h -4.684885 z m 4.557885,8.18444 q 0.874889,0 1.340555,-0.33866 0.465666,-0.35278 0.465666,-1.016 0,-1.29822 -1.806221,-1.29822 h -2.285998 v 2.65288 z m 14.407459,-8.18444 -4.205108,7.81755 q -0.606777,1.12889 -1.467554,1.70745 -0.846666,0.57855 -1.848554,0.57855 -0.776111,0 -1.608666,-0.33866 l 0.550333,-1.73567 q 0.592666,0.18344 0.987777,0.18344 0.423333,0 0.761999,-0.19755 0.338667,-0.21167 0.620889,-0.64911 l 0.08467,-0.11289 -3.894663,-7.25311 h 2.44122 l 2.624665,5.30578 2.709331,-5.30578 z m 9.736684,0 v 9.87777 H 94.65538 v -8.0151 h -3.386664 l -0.07055,2.06022 q -0.07056,2.10255 -0.338667,3.41489 -0.268111,1.29822 -0.90311,2.00377 -0.620889,0.69145 -1.749777,0.69145 -0.465666,0 -1.128888,-0.15523 l 0.141111,-1.93322 q 0.183445,0.0564 0.409222,0.0564 0.818444,0 1.142999,-0.95956 0.324556,-0.97366 0.409222,-3.03388 l 0.141111,-4.00756 z m 9.426204,1.86267 h -4.699 l 0.0141,8.0151 h -2.271883 v -9.87777 h 6.970873 z m 6.18067,5.89844 h -4.58611 l -0.87488,2.11666 h -2.34245 l 4.40267,-9.87777 h 2.25777 l 4.41678,9.87777 h -2.39889 z m -0.71966,-1.73567 -1.56634,-3.78177 -1.56633,3.78177 z m 14.3651,-6.02544 v 9.87777 h -2.286 v -4.04988 h -4.48733 v 4.04988 h -2.286 v -9.87777 h 2.286 v 3.89467 h 4.48733 v -3.89467 z"
       id="text26"
       style="font-weight:bold;font-size:14.1111px;line-height:1.25;font-family:Montserrat;-inkscape-font-specification:'Montserrat, Bold';opacity:1;fill:#fecb00;fill-opacity:1;stroke-width:0.264583"
       aria-label="БУЛГАН&#10;" /><g
       id="g29"
       style="fill:#fecb00;fill-opacity:1"
       transform="translate(1.9349997e-4)"><path
         style="opacity:1;fill:#fecb00;fill-opacity:1;stroke:none;stroke-width:0.264583px;stroke-linecap:butt;stroke-linejoin:miter;stroke-opacity:1"
         d="m 113.77231,182.02579 c 0.96191,-0.71782 2.78727,-1.60684 4.42476,-1.60149 4.79604,0.0157 11.14443,2.72419 11.14443,2.72419 0,0 -5.87027,2.90109 -9.65851,2.52607 -2.46515,-0.24404 -5.51876,-1.25202 -5.91068,-3.64877 z"
         id="path27"
         sodipodi:nodetypes="cscsc" /><path
         style="opacity:1;fill:#fecb00;fill-opacity:1;stroke:none;stroke-width:0.264583px;stroke-linecap:butt;stroke-linejoin:miter;stroke-opacity:1"
         d="m 124.36273,177.74728 c 0.72597,-0.95577 2.23442,-2.31477 3.80957,-2.76232 4.61346,-1.3108 11.46322,-0.46291 11.46322,-0.46291 0,0 -4.83948,4.41089 -8.58375,5.09776 -2.43654,0.44697 -5.6498,0.32246 -6.68904,-1.87253 z"
         id="path27-3"
         sodipodi:nodetypes="cscsc" /><path
         style="opacity:1;fill:#fecb00;fill-opacity:1;stroke:none;stroke-width:0.264583px;stroke-linecap:butt;stroke-linejoin:miter;stroke-opacity:1"
         d="m 133.00919,171.44561 c 0.40279,-1.13061 1.4294,-2.88228 2.79533,-3.7854 4.0007,-2.64512 10.78598,-3.90927 10.78598,-3.90927 0,0 -3.27823,5.66831 -6.63923,7.45577 -2.18713,1.16316 -5.28749,2.01662 -6.94208,0.2389 z"
         id="path27-3-3"
         sodipodi:nodetypes="cscsc" /><path
         style="opacity:1;fill:#fecb00;fill-opacity:1;stroke:none;stroke-width:0.264583px;stroke-linecap:butt;stroke-linejoin:miter;stroke-opacity:1"
         d="m 139.88656,161.51075 c 0.40279,-1.13061 1.4294,-2.88228 2.79533,-3.7854 4.0007,-2.64512 10.78598,-3.90927 10.78598,-3.90927 0,0 -3.27823,5.66831 -6.63923,7.45577 -2.18713,1.16316 -5.28749,2.01662 -6.94208,0.2389 z"
         id="path27-3-3-8"
         sodipodi:nodetypes="cscsc" /><path
         style="opacity:1;fill:#fecb00;fill-opacity:1;stroke:none;stroke-width:0.264583px;stroke-linecap:butt;stroke-linejoin:miter;stroke-opacity:1"
         d="m 144.4003,151.25405 c 0.0737,-1.19795 0.17785,-2.65181 1.24005,-3.89805 3.11112,-3.6501 9.28043,-6.74487 9.28043,-6.74487 0,0 -1.38077,5.99281 -4.11488,8.64158 -1.77919,1.72364 -4.32321,3.25099 -6.4056,2.00134 z"
         id="path27-3-3-8-0"
         sodipodi:nodetypes="cscsc" /><path
         style="opacity:1;fill:#fecb00;fill-opacity:1;stroke:none;stroke-width:0.264583px;stroke-linecap:butt;stroke-linejoin:miter;stroke-opacity:1"
         d="m 146.34248,140.33341 c -0.17988,-1.18666 -0.38381,-2.62991 0.39254,-4.07167 2.2739,-4.22274 7.65439,-8.54576 7.65439,-8.54576 0,0 -0.0896,6.14918 -2.20548,9.31371 -1.37691,2.05927 -3.54282,4.08748 -5.84145,3.30372 z"
         id="path27-3-3-8-0-9"
         sodipodi:nodetypes="cscsc" /><path
         style="opacity:1;fill:#fecb00;fill-opacity:1;stroke:none;stroke-width:0.264583px;stroke-linecap:butt;stroke-linejoin:miter;stroke-opacity:1"
         d="m 146.37585,128.90102 c -0.47093,-1.10397 -1.02931,-2.45036 -0.63819,-4.04046 1.1456,-4.65722 5.274,-10.18845 5.274,-10.18845 0,0 1.45106,5.97619 0.19382,9.56931 -0.81817,2.33818 -2.40803,4.8436 -4.82963,4.6596 z"
         id="path27-3-3-8-0-9-3"
         sodipodi:nodetypes="cscsc" /><path
         style="opacity:1;fill:#fecb00;fill-opacity:1;stroke:none;stroke-width:0.264583px;stroke-linecap:butt;stroke-linejoin:miter;stroke-opacity:1"
         d="m 142.91014,117.1151 c -0.72258,-0.95833 -1.58833,-2.13094 -1.59106,-3.76843 -0.008,-4.79605 2.66924,-11.15772 2.66924,-11.15772 0,0 2.84557,5.45189 2.48926,9.2419 -0.2319,2.46632 -1.17264,5.28053 -3.56744,5.68425 z"
         id="path27-3-3-8-0-9-3-6"
         sodipodi:nodetypes="cscsc" /><path
         style="opacity:1;fill:#fecb00;fill-opacity:1;stroke:none;stroke-width:0.264583px;stroke-linecap:butt;stroke-linejoin:miter;stroke-opacity:1"
         d="m 138.64639,108.10475 c -0.93156,-0.75678 -2.05355,-1.68719 -2.44941,-3.27611 -1.15942,-4.65381 -0.083,-11.437441 -0.083,-11.437441 0,0 4.06636,4.574301 4.63055,8.338981 0.36711,2.44985 0.1297,5.40761 -2.09812,6.37457 z"
         id="path27-3-3-8-0-9-3-6-4"
         sodipodi:nodetypes="cscscc" /><path
         style="opacity:1;fill:#fecb00;fill-opacity:1;stroke:none;stroke-width:0.264583px;stroke-linecap:butt;stroke-linejoin:miter;stroke-opacity:1"
         d="m 111.69605,179.89233 c 1.17683,-0.23579 3.39928,-1.42711 4.48969,-2.64876 3.19366,-3.57809 3.28384,-8.75286 3.28384,-8.75286 0,0 -4.4122,2.08429 -6.66504,5.15288 -1.466,1.99683 -2.40046,4.1403 -1.10849,6.24874 z"
         id="path28"
         sodipodi:nodetypes="cscsc" /><path
         style="opacity:1;fill:#fecb00;fill-opacity:1;stroke:none;stroke-width:0.264583px;stroke-linecap:butt;stroke-linejoin:miter;stroke-opacity:1"
         d="m 121.27122,174.46008 c 1.3799,-0.0987 3.40474,-1.21949 4.11201,-2.69637 2.07151,-4.32563 0.39085,-9.53114 0.39085,-9.53114 0,0 -3.40083,3.23004 -4.71051,6.80443 -0.85226,2.32597 -0.74455,3.69919 0.20765,5.42308 z"
         id="path29"
         sodipodi:nodetypes="cscsc" /><path
         style="opacity:1;fill:#fecb00;fill-opacity:1;stroke:none;stroke-width:0.264583px;stroke-linecap:butt;stroke-linejoin:miter;stroke-opacity:1"
         d="m 129.51082,168.14881 c 1.44552,-0.15968 3.13251,-2.22999 3.2713,-3.8616 0.40652,-4.7788 -3.0077,-9.05258 -3.0077,-9.05258 0,0 -2.03754,4.2246 -1.9974,8.03116 0.0261,2.47706 0.61285,3.42609 1.7338,4.88302 z"
         id="path29-3"
         sodipodi:nodetypes="cscsc" /><path
         style="opacity:1;fill:#fecb00;fill-opacity:1;stroke:none;stroke-width:0.264583px;stroke-linecap:butt;stroke-linejoin:miter;stroke-opacity:1"
         d="m 135.27176,159.47494 c 1.39898,-0.39731 2.73075,-2.70716 2.5969,-4.33918 -0.39202,-4.78002 -4.35128,-8.38136 -4.35128,-8.38136 0,0 -1.30835,4.50412 -0.63717,8.25125 0.43673,2.43839 1.0444,3.21854 2.39155,4.46929 z"
         id="path29-3-9"
         sodipodi:nodetypes="cscsc" /><path
         style="opacity:1;fill:#fecb00;fill-opacity:1;stroke:none;stroke-width:0.264583px;stroke-linecap:butt;stroke-linejoin:miter;stroke-opacity:1"
         d="m 139.22005,150.12602 c 1.35604,-0.52551 2.01121,-3.07635 1.72637,-4.68889 -0.83424,-4.72295 -5.23143,-7.9767 -5.23143,-7.9767 0,0 -0.88439,4.60616 0.13188,8.27477 0.6613,2.38731 1.6647,3.27059 3.37318,4.39082 z"
         id="path29-3-3"
         sodipodi:nodetypes="cscsc" /><path
         style="opacity:1;fill:#fecb00;fill-opacity:1;stroke:none;stroke-width:0.264583px;stroke-linecap:butt;stroke-linejoin:miter;stroke-opacity:1"
         d="m 141.57098,139.93988 c 1.28372,-0.68342 1.64086,-3.10273 1.16581,-4.66981 -1.39136,-4.58981 -6.35524,-7.26109 -6.35524,-7.26109 0,0 -0.0488,4.63204 1.39764,8.15333 0.94119,2.29142 2.21115,2.83909 3.79179,3.77757 z"
         id="path29-3-35"
         sodipodi:nodetypes="cscsc" /><path
         style="opacity:1;fill:#fecb00;fill-opacity:1;stroke:none;stroke-width:0.264583px;stroke-linecap:butt;stroke-linejoin:miter;stroke-opacity:1"
         d="m 141.66428,128.13869 c 0.96127,-1.09131 0.44456,-3.48163 -0.55137,-4.78145 -2.91696,-3.80704 -8.50326,-4.56147 -8.50326,-4.56147 0,0 1.58371,4.35316 4.17637,7.1406 1.68707,1.81389 3.06852,1.87983 4.87826,2.20232 z"
         id="path29-3-35-6"
         sodipodi:nodetypes="cscsc" /><path
         style="opacity:1;fill:#fecb00;fill-opacity:1;stroke:none;stroke-width:0.264583px;stroke-linecap:butt;stroke-linejoin:miter;stroke-opacity:1"
         d="m 138.77206,118.28009 c 0.77588,-1.23005 -0.11363,-3.50805 -1.30327,-4.63332 -3.48424,-3.29582 -9.11947,-3.15404 -9.11947,-3.15404 0,0 2.25456,4.04661 5.25677,6.38723 1.95358,1.52312 3.32799,1.36897 5.16597,1.40013 z"
         id="path29-3-35-6-6"
         sodipodi:nodetypes="cscsc" /><path
         style="opacity:1;fill:#fecb00;fill-opacity:1;stroke:none;stroke-width:0.264583px;stroke-linecap:butt;stroke-linejoin:miter;stroke-opacity:1"
         d="m 134.37086,109.08541 c 0.47953,-1.37297 -0.89931,-3.39274 -2.31141,-4.22181 -4.13591,-2.42828 -9.59505,-1.02343 -9.59505,-1.02343 0,0 3.10646,3.43627 6.55797,5.04214 2.24596,1.04502 3.55054,0.58588 5.34849,0.2031 z"
         id="path29-3-35-6-5"
         sodipodi:nodetypes="cscsc" /><path
         style="opacity:1;fill:#fecb00;fill-opacity:1;stroke:none;stroke-width:0.264583px;stroke-linecap:butt;stroke-linejoin:miter;stroke-opacity:1"
         d="m 125.64481,99.161474 c -3.80949,-2.913757 -6.36663,-7.188338 -6.36663,-7.188338 0.1645,-0.219336 4.94326,-0.128411 8.57257,2.46144 2.54997,1.819639 2.50905,4.231227 1.90991,6.363424 -0.6257,-0.0719 -2.91479,-0.71787 -4.11585,-1.636526 z"
         id="path30"
         sodipodi:nodetypes="scscs" /></g><path
       id="path9-8"
       style="color:#000000;opacity:1;fill:#fecb00;fill-opacity:1;fill-rule:evenodd;stroke-linecap:round;-inkscape-stroke:none"
       d="m 112.54248,97.042655 v 0.991154 c 3.95366,1.614126 7.59171,3.837561 10.80813,6.545341 l 1.07952,-0.28887 c -3.49973,-3.03885 -7.51009,-5.505145 -11.88765,-7.247625 z"
       sodipodi:nodetypes="ccccc" /><path
       id="circle9-7"
       style="color:#000000;opacity:1;fill:#fecb00;fill-opacity:1;fill-rule:evenodd;stroke-linecap:round;-inkscape-stroke:none"
       d="m 112.54248,92.7809 v 0.974618 c 6.26343,2.294424 11.8642,5.957056 16.45171,10.619502 l 1.62678,0.37983 C 125.6921,99.429114 119.51209,95.277646 112.54248,92.7809 Z"
       sodipodi:nodetypes="ccccc" /><path
       id="circle10-2"
       style="color:#000000;opacity:1;fill:#fecb00;fill-opacity:1;fill-rule:evenodd;stroke-linecap:round;-inkscape-stroke:none"
       d="m 112.54248,88.578573 v 0.975134 c 5.35645,1.78222 10.29601,4.473557 14.642,7.885823 l 0.70642,-0.6196 c -4.54022,-3.591602 -9.72238,-6.407156 -15.34842,-8.241357 z"
       sodipodi:nodetypes="ccccc" /><path
       id="circle11-0"
       style="color:#000000;opacity:1;fill:#fecb00;fill-opacity:1;fill-rule:evenodd;stroke-linecap:round;-inkscape-stroke:none"
       d="m 112.54248,84.406734 v 0.960148 c 9.3259,2.842371 17.54799,8.208984 23.87968,15.299328 l 0.18707,-1.153421 C 130.17281,92.502731 121.89826,87.206491 112.54248,84.406734 Z"
       sodipodi:nodetypes="ccccc" /><path
       id="circle12-5"
       style="color:#000000;opacity:1;fill:#fecb00;fill-opacity:1;fill-rule:evenodd;stroke-linecap:round;-inkscape-stroke:none"
       d="m 112.54248,80.269002 v 0.960665 c 9.0553,2.54848 17.18544,7.296789 23.7877,13.625525 l -0.21601,-1.463993 C 129.49897,87.301314 121.45765,82.73588 112.54248,80.269002 Z"
       sodipodi:nodetypes="ccccc" /><path
       id="path22"
       style="color:#000000;opacity:1;fill:#fecb00;fill-opacity:1;fill-rule:evenodd;stroke-linecap:round;-inkscape-stroke:none"
       d="m 81.83463,97.042655 v 0.991154 c -3.95366,1.614126 -7.59171,3.837561 -10.80813,6.545341 l -1.07952,-0.28887 c 3.49973,-3.03885 7.51009,-5.505145 11.88765,-7.247625 z"
       sodipodi:nodetypes="ccccc" /><path
       id="path23"
       style="color:#000000;opacity:1;fill:#fecb00;fill-opacity:1;fill-rule:evenodd;stroke-linecap:round;-inkscape-stroke:none"
       d="m 81.83463,92.7809 v 0.974618 c -6.26343,2.294424 -11.8642,5.957056 -16.45171,10.619502 l -1.62678,0.37983 C 68.68501,99.429114 74.86502,95.277646 81.83463,92.7809 Z"
       sodipodi:nodetypes="ccccc" /><path
       id="path24"
       style="color:#000000;opacity:1;fill:#fecb00;fill-opacity:1;fill-rule:evenodd;stroke-linecap:round;-inkscape-stroke:none"
       d="m 81.83463,88.578573 v 0.975134 c -5.35645,1.78222 -10.29601,4.473557 -14.642,7.885823 l -0.70642,-0.6196 c 4.54022,-3.591602 9.72238,-6.407156 15.34842,-8.241357 z"
       sodipodi:nodetypes="ccccc" /><path
       id="path25"
       style="color:#000000;opacity:1;fill:#fecb00;fill-opacity:1;fill-rule:evenodd;stroke-linecap:round;-inkscape-stroke:none"
       d="m 81.83463,84.406734 v 0.960148 c -9.3259,2.842371 -17.54799,8.208984 -23.87968,15.299328 L 57.76788,99.512789 C 64.2043,92.502731 72.47885,87.206491 81.83463,84.406734 Z"
       sodipodi:nodetypes="ccccc" /><path
       id="path26"
       style="color:#000000;opacity:1;fill:#fecb00;fill-opacity:1;fill-rule:evenodd;stroke-linecap:round;-inkscape-stroke:none"
       d="m 81.83463,80.269002 v 0.960665 c -9.0553,2.54848 -17.18544,7.296789 -23.7877,13.625525 l 0.21601,-1.463993 C 64.87814,87.301314 72.91946,82.73588 81.83463,80.269002 Z"
       sodipodi:nodetypes="ccccc" /><g
       id="g69"
       style="fill:#fecb00;fill-opacity:1"
       transform="matrix(-1,0,0,1,194.37692,0)"><path
         style="opacity:1;fill:#fecb00;fill-opacity:1;stroke:none;stroke-width:0.264583px;stroke-linecap:butt;stroke-linejoin:miter;stroke-opacity:1"
         d="m 113.77231,182.02579 c 0.96191,-0.71782 2.78727,-1.60684 4.42476,-1.60149 4.79604,0.0157 11.14443,2.72419 11.14443,2.72419 0,0 -5.87027,2.90109 -9.65851,2.52607 -2.46515,-0.24404 -5.51876,-1.25202 -5.91068,-3.64877 z"
         id="path32"
         sodipodi:nodetypes="cscsc" /><path
         style="opacity:1;fill:#fecb00;fill-opacity:1;stroke:none;stroke-width:0.264583px;stroke-linecap:butt;stroke-linejoin:miter;stroke-opacity:1"
         d="m 124.36273,177.74728 c 0.72597,-0.95577 2.23442,-2.31477 3.80957,-2.76232 4.61346,-1.3108 11.46322,-0.46291 11.46322,-0.46291 0,0 -4.83948,4.41089 -8.58375,5.09776 -2.43654,0.44697 -5.6498,0.32246 -6.68904,-1.87253 z"
         id="path33"
         sodipodi:nodetypes="cscsc" /><path
         style="opacity:1;fill:#fecb00;fill-opacity:1;stroke:none;stroke-width:0.264583px;stroke-linecap:butt;stroke-linejoin:miter;stroke-opacity:1"
         d="m 133.00919,171.44561 c 0.40279,-1.13061 1.4294,-2.88228 2.79533,-3.7854 4.0007,-2.64512 10.78598,-3.90927 10.78598,-3.90927 0,0 -3.27823,5.66831 -6.63923,7.45577 -2.18713,1.16316 -5.28749,2.01662 -6.94208,0.2389 z"
         id="path34"
         sodipodi:nodetypes="cscsc" /><path
         style="opacity:1;fill:#fecb00;fill-opacity:1;stroke:none;stroke-width:0.264583px;stroke-linecap:butt;stroke-linejoin:miter;stroke-opacity:1"
         d="m 139.88656,161.51075 c 0.40279,-1.13061 1.4294,-2.88228 2.79533,-3.7854 4.0007,-2.64512 10.78598,-3.90927 10.78598,-3.90927 0,0 -3.27823,5.66831 -6.63923,7.45577 -2.18713,1.16316 -5.28749,2.01662 -6.94208,0.2389 z"
         id="path35"
         sodipodi:nodetypes="cscsc" /><path
         style="opacity:1;fill:#fecb00;fill-opacity:1;stroke:none;stroke-width:0.264583px;stroke-linecap:butt;stroke-linejoin:miter;stroke-opacity:1"
         d="m 144.4003,151.25405 c 0.0737,-1.19795 0.17785,-2.65181 1.24005,-3.89805 3.11112,-3.6501 9.28043,-6.74487 9.28043,-6.74487 0,0 -1.38077,5.99281 -4.11488,8.64158 -1.77919,1.72364 -4.32321,3.25099 -6.4056,2.00134 z"
         id="path36"
         sodipodi:nodetypes="cscsc" /><path
         style="opacity:1;fill:#fecb00;fill-opacity:1;stroke:none;stroke-width:0.264583px;stroke-linecap:butt;stroke-linejoin:miter;stroke-opacity:1"
         d="m 146.34248,140.33341 c -0.17988,-1.18666 -0.38381,-2.62991 0.39254,-4.07167 2.2739,-4.22274 7.65439,-8.54576 7.65439,-8.54576 0,0 -0.0896,6.14918 -2.20548,9.31371 -1.37691,2.05927 -3.54282,4.08748 -5.84145,3.30372 z"
         id="path37"
         sodipodi:nodetypes="cscsc" /><path
         style="opacity:1;fill:#fecb00;fill-opacity:1;stroke:none;stroke-width:0.264583px;stroke-linecap:butt;stroke-linejoin:miter;stroke-opacity:1"
         d="m 146.37585,128.90102 c -0.47093,-1.10397 -1.02931,-2.45036 -0.63819,-4.04046 1.1456,-4.65722 5.274,-10.18845 5.274,-10.18845 0,0 1.45106,5.97619 0.19382,9.56931 -0.81817,2.33818 -2.40803,4.8436 -4.82963,4.6596 z"
         id="path38"
         sodipodi:nodetypes="cscsc" /><path
         style="opacity:1;fill:#fecb00;fill-opacity:1;stroke:none;stroke-width:0.264583px;stroke-linecap:butt;stroke-linejoin:miter;stroke-opacity:1"
         d="m 142.91014,117.1151 c -0.72258,-0.95833 -1.58833,-2.13094 -1.59106,-3.76843 -0.008,-4.79605 2.66924,-11.15772 2.66924,-11.15772 0,0 2.84557,5.45189 2.48926,9.2419 -0.2319,2.46632 -1.17264,5.28053 -3.56744,5.68425 z"
         id="path39"
         sodipodi:nodetypes="cscsc" /><path
         style="opacity:1;fill:#fecb00;fill-opacity:1;stroke:none;stroke-width:0.264583px;stroke-linecap:butt;stroke-linejoin:miter;stroke-opacity:1"
         d="m 138.64639,108.10475 c -0.93156,-0.75678 -2.05355,-1.68719 -2.44941,-3.27611 -1.15942,-4.65381 -0.083,-11.437441 -0.083,-11.437441 0,0 4.06636,4.574301 4.63055,8.338981 0.36711,2.44985 0.1297,5.40761 -2.09812,6.37457 z"
         id="path40"
         sodipodi:nodetypes="cscscc" /><path
         style="opacity:1;fill:#fecb00;fill-opacity:1;stroke:none;stroke-width:0.264583px;stroke-linecap:butt;stroke-linejoin:miter;stroke-opacity:1"
         d="m 111.69605,179.89233 c 1.17683,-0.23579 3.39928,-1.42711 4.48969,-2.64876 3.19366,-3.57809 3.28384,-8.75286 3.28384,-8.75286 0,0 -4.4122,2.08429 -6.66504,5.15288 -1.466,1.99683 -2.40046,4.1403 -1.10849,6.24874 z"
         id="path41"
         sodipodi:nodetypes="cscsc" /><path
         style="opacity:1;fill:#fecb00;fill-opacity:1;stroke:none;stroke-width:0.264583px;stroke-linecap:butt;stroke-linejoin:miter;stroke-opacity:1"
         d="m 121.27122,174.46008 c 1.3799,-0.0987 3.40474,-1.21949 4.11201,-2.69637 2.07151,-4.32563 0.39085,-9.53114 0.39085,-9.53114 0,0 -3.40083,3.23004 -4.71051,6.80443 -0.85226,2.32597 -0.74455,3.69919 0.20765,5.42308 z"
         id="path42"
         sodipodi:nodetypes="cscsc" /><path
         style="opacity:1;fill:#fecb00;fill-opacity:1;stroke:none;stroke-width:0.264583px;stroke-linecap:butt;stroke-linejoin:miter;stroke-opacity:1"
         d="m 129.51082,168.14881 c 1.44552,-0.15968 3.13251,-2.22999 3.2713,-3.8616 0.40652,-4.7788 -3.0077,-9.05258 -3.0077,-9.05258 0,0 -2.03754,4.2246 -1.9974,8.03116 0.0261,2.47706 0.61285,3.42609 1.7338,4.88302 z"
         id="path43"
         sodipodi:nodetypes="cscsc" /><path
         style="opacity:1;fill:#fecb00;fill-opacity:1;stroke:none;stroke-width:0.264583px;stroke-linecap:butt;stroke-linejoin:miter;stroke-opacity:1"
         d="m 135.27176,159.47494 c 1.39898,-0.39731 2.73075,-2.70716 2.5969,-4.33918 -0.39202,-4.78002 -4.35128,-8.38136 -4.35128,-8.38136 0,0 -1.30835,4.50412 -0.63717,8.25125 0.43673,2.43839 1.0444,3.21854 2.39155,4.46929 z"
         id="path44"
         sodipodi:nodetypes="cscsc" /><path
         style="opacity:1;fill:#fecb00;fill-opacity:1;stroke:none;stroke-width:0.264583px;stroke-linecap:butt;stroke-linejoin:miter;stroke-opacity:1"
         d="m 139.22005,150.12602 c 1.35604,-0.52551 2.01121,-3.07635 1.72637,-4.68889 -0.83424,-4.72295 -5.23143,-7.9767 -5.23143,-7.9767 0,0 -0.88439,4.60616 0.13188,8.27477 0.6613,2.38731 1.6647,3.27059 3.37318,4.39082 z"
         id="path45"
         sodipodi:nodetypes="cscsc" /><path
         style="opacity:1;fill:#fecb00;fill-opacity:1;stroke:none;stroke-width:0.264583px;stroke-linecap:butt;stroke-linejoin:miter;stroke-opacity:1"
         d="m 141.57098,139.93988 c 1.28372,-0.68342 1.64086,-3.10273 1.16581,-4.66981 -1.39136,-4.58981 -6.35524,-7.26109 -6.35524,-7.26109 0,0 -0.0488,4.63204 1.39764,8.15333 0.94119,2.29142 2.21115,2.83909 3.79179,3.77757 z"
         id="path46"
         sodipodi:nodetypes="cscsc" /><path
         style="opacity:1;fill:#fecb00;fill-opacity:1;stroke:none;stroke-width:0.264583px;stroke-linecap:butt;stroke-linejoin:miter;stroke-opacity:1"
         d="m 141.66428,128.13869 c 0.96127,-1.09131 0.44456,-3.48163 -0.55137,-4.78145 -2.91696,-3.80704 -8.50326,-4.56147 -8.50326,-4.56147 0,0 1.58371,4.35316 4.17637,7.1406 1.68707,1.81389 3.06852,1.87983 4.87826,2.20232 z"
         id="path47"
         sodipodi:nodetypes="cscsc" /><path
         style="opacity:1;fill:#fecb00;fill-opacity:1;stroke:none;stroke-width:0.264583px;stroke-linecap:butt;stroke-linejoin:miter;stroke-opacity:1"
         d="m 138.77206,118.28009 c 0.77588,-1.23005 -0.11363,-3.50805 -1.30327,-4.63332 -3.48424,-3.29582 -9.11947,-3.15404 -9.11947,-3.15404 0,0 2.25456,4.04661 5.25677,6.38723 1.95358,1.52312 3.32799,1.36897 5.16597,1.40013 z"
         id="path48"
         sodipodi:nodetypes="cscsc" /><path
         style="opacity:1;fill:#fecb00;fill-opacity:1;stroke:none;stroke-width:0.264583px;stroke-linecap:butt;stroke-linejoin:miter;stroke-opacity:1"
         d="m 134.37086,109.08541 c 0.47953,-1.37297 -0.89931,-3.39274 -2.31141,-4.22181 -4.13591,-2.42828 -9.59505,-1.02343 -9.59505,-1.02343 0,0 3.10646,3.43627 6.55797,5.04214 2.24596,1.04502 3.55054,0.58588 5.34849,0.2031 z"
         id="path68"
         sodipodi:nodetypes="cscsc" /><path
         style="opacity:1;fill:#fecb00;fill-opacity:1;stroke:none;stroke-width:0.264583px;stroke-linecap:butt;stroke-linejoin:miter;stroke-opacity:1"
         d="m 125.64481,99.161474 c -3.80949,-2.913757 -6.36663,-7.188338 -6.36663,-7.188338 0.1645,-0.219336 4.94326,-0.128411 8.57257,2.46144 2.54997,1.819639 2.50905,4.231227 1.90991,6.363424 -0.6257,-0.0719 -2.91479,-0.71787 -4.11585,-1.636526 z"
         id="path69"
         sodipodi:nodetypes="scscs" /></g></g></svg>
