<?xml version="1.0" encoding="UTF-8" standalone="no"?>
<!-- Created with Inkscape (http://www.inkscape.org/) -->

<svg
   xmlns:dc="http://purl.org/dc/elements/1.1/"
   xmlns:cc="http://creativecommons.org/ns#"
   xmlns:rdf="http://www.w3.org/1999/02/22-rdf-syntax-ns#"
   xmlns:svg="http://www.w3.org/2000/svg"
   xmlns="http://www.w3.org/2000/svg"
   xmlns:xlink="http://www.w3.org/1999/xlink"
   xmlns:sodipodi="http://sodipodi.sourceforge.net/DTD/sodipodi-0.dtd"
   xmlns:inkscape="http://www.inkscape.org/namespaces/inkscape"
   width="1000"
   height="1000"
   viewBox="0 0 1000 1000"
   id="svg2"
   version="1.1"
   inkscape:version="0.91 r13725"
   sodipodi:docname="Mn coa selenge aimag 1999.svg">
  <title
     id="title4592">COA of Selenge Aimag, 1999</title>
  <defs
     id="defs4" />
  <sodipodi:namedview
     id="base"
     pagecolor="#ffffff"
     bordercolor="#666666"
     borderopacity="1.0"
     inkscape:pageopacity="0.0"
     inkscape:pageshadow="2"
     inkscape:zoom="0.28449999"
     inkscape:cx="207.8939"
     inkscape:cy="286.16276"
     inkscape:document-units="px"
     inkscape:current-layer="layer5"
     showgrid="false"
     units="px"
     inkscape:snap-grids="true"
     inkscape:snap-intersection-paths="true"
     inkscape:snap-global="false"
     inkscape:window-width="1597"
     inkscape:window-height="971"
     inkscape:window-x="-74"
     inkscape:window-y="10"
     inkscape:window-maximized="0"
     inkscape:object-nodes="true"
     showguides="true"
     inkscape:guide-bbox="true">
    <inkscape:grid
       type="xygrid"
       id="grid4148" />
  </sodipodi:namedview>
  <metadata
     id="metadata7">
    <rdf:RDF>
      <cc:Work
         rdf:about="">
        <dc:format>image/svg+xml</dc:format>
        <dc:type
           rdf:resource="http://purl.org/dc/dcmitype/StillImage" />
        <dc:title>COA of Selenge Aimag, 1999</dc:title>
        <dc:date>2016-05-21</dc:date>
        <dc:rights>
          <cc:Agent>
            <dc:title>PD-Mongolia-exempt</dc:title>
          </cc:Agent>
        </dc:rights>
        <dc:publisher>
          <cc:Agent>
            <dc:title>Created for Wikimedia Commons</dc:title>
          </cc:Agent>
        </dc:publisher>
        <dc:source />
      </cc:Work>
    </rdf:RDF>
  </metadata>
  <g
     inkscape:groupmode="layer"
     id="layer5"
     inkscape:label="background"
     style="display:inline;opacity:1"
     sodipodi:insensitive="true">
    <path
       style="opacity:1;fill:#b5ebff;fill-opacity:1;fill-rule:evenodd;stroke:none;stroke-width:1px;stroke-linecap:butt;stroke-linejoin:miter;stroke-opacity:1"
       d="M 115.96551,465 883.88347,465 777.81746,222.18254 497.80317,97.731751 203.64675,227.8394 Z"
       id="path4232"
       inkscape:connector-curvature="0"
       sodipodi:nodetypes="cccccc" />
    <path
       style="opacity:1;fill:#fbfe00;fill-opacity:1;fill-rule:evenodd;stroke:none;stroke-width:1px;stroke-linecap:butt;stroke-linejoin:miter;stroke-opacity:1"
       d="m 115.96551,465 39.59798,209.73088 683.06515,0 L 883.88347,465 Z"
       id="path4234"
       inkscape:connector-curvature="0" />
    <path
       style="opacity:1;fill:#ffffff;fill-opacity:1;fill-rule:evenodd;stroke:none;stroke-width:1px;stroke-linecap:butt;stroke-linejoin:miter;stroke-opacity:1"
       d="m 155.56349,674.73088 185.26198,179.60512 315.36962,0 182.43355,-179.60512 z"
       id="path4238"
       inkscape:connector-curvature="0" />
  </g>
  <g
     inkscape:groupmode="layer"
     id="layer8"
     inkscape:label="waves"
     style="display:inline"
     sodipodi:insensitive="true">
    <path
       style="fill:none;fill-rule:evenodd;stroke:#000000;stroke-width:2;stroke-linecap:butt;stroke-linejoin:miter;stroke-miterlimit:4;stroke-dasharray:none;stroke-opacity:1"
       d="m 200,700 c 15.40254,29.90559 60.14035,30.58237 75,0 15.40254,29.90559 60.14035,30.58237 75,0 15.40254,29.90559 60.14035,30.58237 75,0 15.40254,29.90559 60.14035,30.58237 75,0 15.40254,29.90559 60.14035,30.58237 75,0 15.40254,29.90559 60.14035,30.58237 75,0 15.40254,29.90559 60.14035,30.58237 75,0 15.40254,29.90559 60.14035,30.58237 75,0"
       id="path4382"
       inkscape:connector-curvature="0"
       sodipodi:nodetypes="ccccccccc" />
    <path
       sodipodi:nodetypes="cccccccccccccccccc"
       inkscape:connector-curvature="0"
       id="path4384"
       d="m 800,720 c -14.85965,30.58237 -59.59746,29.90559 -75,0 -14.85965,30.58237 -59.59746,29.90559 -75,0 -14.85965,30.58237 -59.59746,29.90559 -75,0 -14.85965,30.58237 -59.59746,29.90559 -75,0 -14.85965,30.58237 -59.59746,29.90559 -75,0 -14.85965,30.58237 -59.59746,29.90559 -75,0 -14.85965,30.58237 -59.59746,29.90559 -75,0 -14.85965,30.58237 -59.59746,29.90559 -75,0 l 0,20 c 15.40254,29.90559 60.14035,30.58237 75,0 15.40254,29.90559 60.14035,30.58237 75,0 15.40254,29.90559 60.14035,30.58237 75,0 15.40254,29.90559 60.14035,30.58237 75,0 15.40254,29.90559 60.14035,30.58237 75,0 15.40254,29.90559 60.14035,30.58237 75,0 15.40254,29.90559 60.14035,30.58237 75,0 15.40254,29.90559 60.14035,30.58237 75,0"
       style="fill:#70cbfd;fill-opacity:1;fill-rule:evenodd;stroke:#000000;stroke-width:2;stroke-linecap:butt;stroke-linejoin:miter;stroke-miterlimit:4;stroke-dasharray:none;stroke-opacity:1" />
    <use
       x="0"
       y="0"
       xlink:href="#path4384"
       id="use4394"
       transform="translate(0,40)"
       width="100%"
       height="100%"
       style="stroke-width:2;stroke-miterlimit:4;stroke-dasharray:none" />
    <use
       x="0"
       y="0"
       xlink:href="#use4394"
       id="use4396"
       transform="translate(0,40)"
       width="100%"
       height="100%"
       style="stroke-width:2;stroke-miterlimit:4;stroke-dasharray:none" />
  </g>
  <g
     inkscape:groupmode="layer"
     id="layer6"
     inkscape:label="rows"
     style="display:inline"
     sodipodi:insensitive="true">
    <path
       style="fill:#c87200;fill-opacity:1;fill-rule:evenodd;stroke:none;stroke-width:1.08925211px;stroke-linecap:butt;stroke-linejoin:miter;stroke-opacity:1"
       d="m 295.7207,465 -164.58203,80.36523 3.71485,19.67579 L 319.49414,465 Z m 47.56836,0 -203.6875,125.18164 6.27539,33.24609 L 367.10352,465 Z m 47.66016,0 -236.38086,204.45312 0.99609,5.27735 70.57422,0 L 414.80469,465 Z m 47.73633,0 -134.54493,209.73047 78.07618,0 L 462.58398,465 Z m 47.79883,0 -26.14844,209.73047 78.22851,0 L 512.42773,465 Z m 49.86523,0 80.36719,209.73047 78.07617,0 L 560.25,465 Z m 47.77734,0 188.66993,209.73047 65.83203,0 1.83789,-8.51367 L 607.98633,465 Z m 47.69922,0 218.30078,156.43945 7.01758,-32.51562 L 655.64258,465 Z m 47.61328,0 183.03125,99.23828 4.17969,-19.37695 L 703.21289,465 Z"
       id="path4247"
       inkscape:connector-curvature="0"
       sodipodi:nodetypes="ccccccccccccccccccccccccccccccccccccccccccccccc" />
  </g>
  <g
     inkscape:groupmode="layer"
     id="layer7"
     inkscape:label="mountains"
     style="display:inline;opacity:1"
     sodipodi:insensitive="true">
    <g
       transform="matrix(1.0000694,0,0,0.80332299,127.97435,91.469364)"
       id="g4359"
       style="stroke:none">
      <path
         sodipodi:nodetypes="ccccccc"
         inkscape:connector-curvature="0"
         id="path4361"
         d="M 357.28906,465 C 384.78906,446.5 400.5,429 408,412.5 c 26.5,-19.5 31,-27 41.5,-50 15.5,-3 38.5,-21 50.5,-40.5 12,21 27,37.5 50,42 11,23.5 26.83469,37.79934 46.5,45.5 9,26.5 22.14258,40 45.14258,55.5"
         style="fill:#66b4f7;fill-opacity:1;fill-rule:evenodd;stroke:none;stroke-width:1px;stroke-linecap:butt;stroke-linejoin:miter;stroke-opacity:1" />
      <path
         inkscape:connector-curvature="0"
         id="path4363"
         d="m 499.82031,370.34961 c -7.94267,17.40685 -18.6665,31.32096 -36.42578,36.30664 -9.54952,22.73336 -27.58072,39.61402 -58.0332,58.34375 l 46.05664,0 c 15.5483,-9.56294 24.75511,-18.18196 29.63086,-29.78906 9.06745,-2.54557 14.54232,-9.64959 18.59765,-18.53711 4.31062,7.95634 12.95384,15.73706 20.72657,17.25781 6.44347,15.41665 14.57097,24.20916 27.14062,31.06836 l 46.05664,0 c -24.61857,-13.43425 -40.53622,-30.65692 -53.15625,-60.85156 -15.22346,-2.9785 -32.15108,-18.21576 -40.59375,-33.79883 z"
         style="fill:#ffffff;fill-opacity:1;fill-rule:evenodd;stroke:none;stroke-width:0.66188931px;stroke-linecap:butt;stroke-linejoin:miter;stroke-opacity:1" />
    </g>
    <g
       id="g4353"
       transform="matrix(1.0000694,0,0,0.80332299,-130.0437,91.469364)"
       style="stroke:none">
      <path
         style="fill:#5688ff;fill-opacity:1;fill-rule:evenodd;stroke:none;stroke-width:1px;stroke-linecap:butt;stroke-linejoin:miter;stroke-opacity:1"
         d="M 357.28906,465 C 384.78906,446.5 400.5,429 408,412.5 c 26.5,-19.5 31,-27 41.5,-50 15.5,-3 38.5,-21 50.5,-40.5 12,21 27,37.5 50,42 11,23.5 26.83469,37.79934 46.5,45.5 9,26.5 22.14258,40 45.14258,55.5"
         id="path4355"
         inkscape:connector-curvature="0"
         sodipodi:nodetypes="ccccccc" />
      <path
         style="fill:#ffffff;fill-opacity:1;fill-rule:evenodd;stroke:none;stroke-width:0.66188931px;stroke-linecap:butt;stroke-linejoin:miter;stroke-opacity:1"
         d="m 499.82031,370.34961 c -7.94267,17.40685 -18.6665,31.32096 -36.42578,36.30664 -9.54952,22.73336 -27.58072,39.61402 -58.0332,58.34375 l 46.05664,0 c 15.5483,-9.56294 24.75511,-18.18196 29.63086,-29.78906 9.06745,-2.54557 14.54232,-9.64959 18.59765,-18.53711 4.31062,7.95634 12.95384,15.73706 20.72657,17.25781 6.44347,15.41665 14.57097,24.20916 27.14062,31.06836 l 46.05664,0 c -24.61857,-13.43425 -40.53622,-30.65692 -53.15625,-60.85156 -15.22346,-2.9785 -32.15108,-18.21576 -40.59375,-33.79883 z"
         id="path4357"
         inkscape:connector-curvature="0" />
    </g>
    <g
       id="use4335"
       transform="matrix(1,0,0,0.52852041,-244,219.23801)"
       style="stroke:none">
      <path
         style="fill:#60db66;fill-opacity:1;fill-rule:evenodd;stroke:none;stroke-width:1px;stroke-linecap:butt;stroke-linejoin:miter;stroke-opacity:1"
         d="M 357.28906,465 C 384.78906,446.5 400.5,429 408,412.5 c 26.5,-19.5 31,-27 41.5,-50 15.5,-3 38.5,-21 50.5,-40.5 12,21 27,37.5 50,42 11,23.5 26.83469,37.79934 46.5,45.5 9,26.5 22.14258,40 45.14258,55.5"
         id="path4339"
         inkscape:connector-curvature="0"
         sodipodi:nodetypes="ccccccc" />
      <path
         style="fill:#ffffff;fill-opacity:1;fill-rule:evenodd;stroke:none;stroke-width:0.66188931px;stroke-linecap:butt;stroke-linejoin:miter;stroke-opacity:1"
         d="m 499.82031,370.34961 c -7.94267,17.40685 -18.6665,31.32096 -36.42578,36.30664 -9.54952,22.73336 -27.58072,39.61402 -58.0332,58.34375 l 46.05664,0 c 15.5483,-9.56294 24.75511,-18.18196 29.63086,-29.78906 9.06745,-2.54557 14.54232,-9.64959 18.59765,-18.53711 4.31062,7.95634 12.95384,15.73706 20.72657,17.25781 6.44347,15.41665 14.57097,24.20916 27.14062,31.06836 l 46.05664,0 c -24.61857,-13.43425 -40.53622,-30.65692 -53.15625,-60.85156 -15.22346,-2.9785 -32.15108,-18.21576 -40.59375,-33.79883 z"
         id="path4341"
         inkscape:connector-curvature="0" />
    </g>
    <g
       transform="matrix(1,0,0,0.52852041,238,219.23801)"
       id="g4347"
       style="stroke:none">
      <path
         sodipodi:nodetypes="ccccccc"
         inkscape:connector-curvature="0"
         id="path4349"
         d="M 357.28906,465 C 384.78906,446.5 400.5,429 408,412.5 c 26.5,-19.5 31,-27 41.5,-50 15.5,-3 38.5,-21 50.5,-40.5 12,21 27,37.5 50,42 11,23.5 26.83469,37.79934 46.5,45.5 9,26.5 22.14258,40 45.14258,55.5"
         style="fill:#fbfe00;fill-opacity:1;fill-rule:evenodd;stroke:none;stroke-width:1px;stroke-linecap:butt;stroke-linejoin:miter;stroke-opacity:1" />
      <path
         inkscape:connector-curvature="0"
         id="path4351"
         d="m 499.82031,370.34961 c -7.94267,17.40685 -18.6665,31.32096 -36.42578,36.30664 -9.54952,22.73336 -27.58072,39.61402 -58.0332,58.34375 l 46.05664,0 c 15.5483,-9.56294 24.75511,-18.18196 29.63086,-29.78906 9.06745,-2.54557 14.54232,-9.64959 18.59765,-18.53711 4.31062,7.95634 12.95384,15.73706 20.72657,17.25781 6.44347,15.41665 14.57097,24.20916 27.14062,31.06836 l 46.05664,0 c -24.61857,-13.43425 -40.53622,-30.65692 -53.15625,-60.85156 -15.22346,-2.9785 -32.15108,-18.21576 -40.59375,-33.79883 z"
         style="fill:#ffffff;fill-opacity:1;fill-rule:evenodd;stroke:none;stroke-width:0.66188931px;stroke-linecap:butt;stroke-linejoin:miter;stroke-opacity:1" />
    </g>
    <g
       id="g4325"
       transform="matrix(1.0002065,0,0,1.0000159,-0.10312876,0.02210255)"
       style="stroke:none">
      <path
         sodipodi:nodetypes="ccccccc"
         inkscape:connector-curvature="0"
         id="path4315"
         d="M 357.28906,465 C 384.78906,446.5 400.5,429 408,412.5 c 26.5,-19.5 31,-27 41.5,-50 15.5,-3 38.5,-21 50.5,-40.5 12,21 27,37.5 50,42 11,23.5 26.83469,37.79934 46.5,45.5 9,26.5 22.14258,40 45.14258,55.5"
         style="fill:#f79018;fill-opacity:1;fill-rule:evenodd;stroke:none;stroke-width:1px;stroke-linecap:butt;stroke-linejoin:miter;stroke-opacity:1" />
      <path
         id="path4317"
         d="m 499.82031,370.34961 c -7.94267,17.40685 -18.6665,31.32096 -36.42578,36.30664 -9.54952,22.73336 -27.58072,39.61402 -58.0332,58.34375 l 46.05664,0 c 15.5483,-9.56294 24.75511,-18.18196 29.63086,-29.78906 9.06745,-2.54557 14.54232,-9.64959 18.59765,-18.53711 4.31062,7.95634 12.95384,15.73706 20.72657,17.25781 6.44347,15.41665 14.57097,24.20916 27.14062,31.06836 l 46.05664,0 c -24.61857,-13.43425 -40.53622,-30.65692 -53.15625,-60.85156 -15.22346,-2.9785 -32.15108,-18.21576 -40.59375,-33.79883 z"
         style="fill:#ffffff;fill-opacity:1;fill-rule:evenodd;stroke:none;stroke-width:0.66188931px;stroke-linecap:butt;stroke-linejoin:miter;stroke-opacity:1"
         inkscape:connector-curvature="0" />
    </g>
  </g>
  <g
     inkscape:groupmode="layer"
     id="layer4"
     inkscape:label="circle"
     style="display:inline;opacity:1"
     sodipodi:insensitive="true">
    <circle
       style="display:inline;opacity:1;fill:none;fill-opacity:1;stroke:#c87200;stroke-width:100;stroke-linecap:butt;stroke-linejoin:round;stroke-miterlimit:4;stroke-dasharray:none;stroke-opacity:1"
       id="circle4182"
       cx="500"
       cy="500"
       r="399.55606" />
    <circle
       r="361.00903"
       cy="500"
       cx="500"
       id="circle4188"
       style="display:inline;opacity:1;fill:none;fill-opacity:1;stroke:#fbfe00;stroke-width:7;stroke-linecap:butt;stroke-linejoin:round;stroke-miterlimit:4;stroke-dasharray:none;stroke-opacity:1" />
    <circle
       r="437.99329"
       cy="500"
       cx="500"
       id="circle4184"
       style="display:inline;opacity:1;fill:none;fill-opacity:1;stroke:#fbfe00;stroke-width:7;stroke-linecap:butt;stroke-linejoin:round;stroke-miterlimit:4;stroke-dasharray:none;stroke-opacity:1" />
  </g>
  <g
     inkscape:groupmode="layer"
     id="layer3"
     inkscape:label="meander"
     style="display:inline;opacity:1"
     sodipodi:insensitive="true">
    <path
       inkscape:transform-center-y="207.18174"
       inkscape:transform-center-x="-212.00815"
       sodipodi:nodetypes="ccccccccccccccccccccccccccccccccccccccccccccccccccccccccccccccccccccccccccccccccccccccccccccccccccccccccccc"
       inkscape:connector-curvature="0"
       id="path4219"
       d="m 782.37857,791.39183 13.03363,13.44966 c 9.8683,-8.87355 28.68167,-29.75084 35.88918,-39.43287 l -9.74451,-7.80682 -8.25572,9.96965 -18.98871,-16.21789 -8.03897,9.12309 -9.23503,-8.40323 c 8.23967,-8.58096 22.58743,-26.52111 29.40176,-36.71243 l 30.63467,21.53703 7.27739,-10.70464 -10.4359,-6.85509 c 3.91164,-5.71568 10.25985,-15.64224 13.11759,-21.40043 l -10.84584,-6.18636 5.85257,-10.65857 33.10379,17.52755 c 6.64324,-11.48872 18.08438,-37.15785 21.94722,-48.59325 l -11.68002,-4.41351 -4.77087,12.03286 -23.07094,-9.5563 -4.82632,11.16075 -11.37978,-5.13816 c 5.18909,-10.81068 13.4081,-32.2121 16.61798,-44.00124 l 35.7906,11.0163 3.6133,-12.42956 -12.04347,-3.2947 c 1.95394,-6.6447 4.92397,-18.04713 5.86247,-24.40658 l -12.2267,-2.53203 2.27245,-11.94545 36.89988,6.44006 c 2.76789,-12.9793 5.71687,-40.9276 5.85691,-52.99699 l -12.47221,-0.58817 -0.81901,12.91821 -24.89483,-1.95927 -1.14124,12.10592 -12.41059,-1.37014 c 1.85524,-11.7135 2.81402,-34.88666 2.24009,-46.97069 l 37.4757,-0.57057 -0.4045,-12.93777 -12.47213,0.58817 c -0.19502,-6.92328 -0.8939,-18.68542 -1.96652,-25.02363 l -12.41071,1.37015 -1.53013,-12.06302 37.08398,-5.27783 c -1.37842,-13.19937 -7.21028,-40.69107 -10.80673,-52.21302 l -12.04353,3.29474 3.21302,12.53903 -24.28183,5.82956 2.65554,11.86608 -12.22656,2.532 c -1.85524,-11.7135 -8.1043,-34.04877 -12.41906,-45.36555 l 35.43042,-12.12482 -4.38269,-12.17956 -11.67995,4.41349 c -2.32488,-6.52417 -6.62426,-17.49466 -9.60299,-23.1912 l -11.37989,5.13821 -5.18292,-10.99978 33.63802,-16.47909 c -5.38978,-12.12739 -19.43161,-36.47141 -26.41252,-46.31807 l -10.43595,6.85514 6.93054,10.93245 -21.29196,13.04773 6.19239,10.46471 -10.84572,6.18629 c -5.7254,-10.90819 -18.3268,-29.4879 -25.82996,-39.3075 l 29.94957,-22.47999 -7.93188,-10.22913 -9.74445,7.80679 c -4.22717,-5.48643 -11.70619,-14.59141 -16.29946,-19.08866 l -9.23513,8.40331 -8.32836,-8.8598 26.89933,-26.06727 c -8.87355,-9.8683 -29.75084,-28.68167 -39.43287,-35.88918 l -7.80682,9.74451 9.96965,8.25572 -16.21789,18.98871 9.12309,8.03897 -8.40323,9.23503 c -8.58096,-8.23967 -26.52111,-22.58743 -36.71243,-29.40176 l 21.53703,-30.63467 -10.70464,-7.27739 -6.85509,10.4359 c -5.71568,-3.91164 -15.64224,-10.25985 -21.40043,-13.11759 l -6.18636,10.84584 -10.65857,-5.85257 17.52755,-33.10379 c -11.48872,-6.64324 -37.15785,-18.08438 -48.59325,-21.94722 l -4.41351,11.68002 12.03286,4.77087 -9.5563,23.07094 11.16075,4.82632 -5.13816,11.37978 c -10.81068,-5.18909 -32.2121,-13.4081 -44.00124,-16.61798 l 11.0163,-35.7906 -12.42956,-3.6133 -3.2947,12.04347 c -6.6447,-1.95394 -18.04713,-4.92397 -24.40658,-5.86247 l -2.53203,12.2267 -11.94545,-2.27245 6.44006,-36.899882 c -12.9793,-2.767887 -40.9276,-5.716861 -52.99699,-5.856907 l -0.58817,12.472209 12.91821,0.819009 -1.95927,24.894831 12.10592,1.14124 -1.37014,12.41059 c -11.53672,-1.4133 -28.62328,-2.44827 -41.06646,-2.41873"
       style="fill:none;fill-rule:evenodd;stroke:#ffffff;stroke-width:6;stroke-linecap:butt;stroke-linejoin:miter;stroke-miterlimit:4;stroke-dasharray:none;stroke-opacity:1" />
    <path
       inkscape:transform-center-y="208.95587"
       inkscape:transform-center-x="-212.21723"
       sodipodi:nodetypes="cccccccccccccccccccccccccccccccccccccccccccccccccccccccccccccccccccccccccccccccccccccccccccccccccccccccccccccc"
       inkscape:connector-curvature="0"
       id="path4221"
       d="m 733.33358,831.98779 10.76917,15.32299 c 14.48772,-10.50885 28.68729,-21.50323 41.59227,-33.33497 l -8.40329,-9.23508 -9.71368,8.55542 -16.21789,-18.98871 -9.36716,7.7532 -7.80678,-9.74445 c 9.59455,-6.97084 26.6584,-22.6788 34.79473,-31.66191 l 26.90023,26.06326 8.86236,-9.43441 -9.23502,-8.40324 c 4.7576,-5.03339 12.5805,-13.84466 16.30383,-19.08491 l -9.74453,-7.80685 7.44789,-9.61181 29.95431,22.49035 c 10.53124,-14.47145 21.1948,-29.49645 29.25553,-44.55616 l -10.8458,-6.18632 -6.59449,11.13838 -21.29197,-13.04774 -6.51282,10.26835 -10.43589,-6.8551 c 6.97085,-9.59454 18.34551,-29.80672 23.30768,-40.86443 l 33.63763,16.47501 5.51322,-11.71128 -11.37977,-5.13818 c 2.96934,-6.25721 7.68653,-17.05464 9.6083,-23.18899 l -11.68005,-4.41353 4.11315,-11.4429 35.43815,12.13321 c 5.64138,-16.62746 10.70125,-34.5536 14.05505,-51.41589 l -12.22665,-2.532 -2.82978,12.63104 -24.28185,-5.82956 -3.02096,11.77836 -12.04347,-3.29472 c 3.6648,-11.27907 8.23684,-34.01695 9.53912,-46.06686 l 37.08235,5.27407 1.6244,-12.84177 -12.41059,-1.37016 c 0.89042,-6.86853 2.04015,-18.59519 1.97224,-25.02316 l -12.47224,-0.58819 0.37579,-12.15387 37.45304,0.58838 c 0.15374,-17.88347 -0.50253,-36.24929 -2.45606,-53.21823 l -12.41067,1.37015 1.21193,12.88728 -24.89483,1.95927 0.76659,12.13541 -12.47213,0.58817 c 0,-11.85951 -2.67812,-34.89736 -5.1632,-46.75993 l 36.89718,-6.44315 -2.42343,-12.71521 -12.22657,2.532 c -1.27566,-6.80753 -3.80594,-18.31553 -5.85687,-24.40791 l -12.04357,3.29474 -3.39836,-11.67514 35.80178,-11.01406 c -5.03,-17.14722 -12.09464,-34.48452 -18.85072,-49.85767 l -11.37985,5.1382 5.135,11.88203 -23.07094,9.5563 4.47912,11.30457 -11.67995,4.41348 C 846.719,356.3239 837.05287,335.24119 831.02369,324.72714 l 33.10026,-17.52965 -6.23404,-11.344 -10.84573,6.18629 c -3.31686,-6.08015 -9.27947,-16.24301 -13.11267,-21.40343 l -10.43598,6.85515 -6.83985,-10.05357 30.64598,-21.53835 c -10.50885,-14.48772 -21.50323,-28.68729 -33.33497,-41.59227 l -9.23508,8.40329 8.55542,9.71368 -18.98871,16.21789 7.7532,9.36716 -9.74445,7.80678 c -6.97084,-9.59455 -22.6788,-26.6584 -31.66191,-34.79473 l 26.06326,-26.90023 -9.43441,-8.86236 -8.40324,9.23502 c -5.03339,-4.7576 -13.84466,-12.5805 -19.08491,-16.30383 l -7.80685,9.74453 -9.61181,-7.44789 22.49035,-29.95431 C 740.3861,150.00107 725.3611,139.33751 710.30139,131.27678 l -6.18632,10.8458 11.13838,6.59449 -13.04774,21.29197 10.26835,6.51282 -6.8551,10.43589 c -9.59454,-6.97085 -29.80672,-18.34551 -40.86443,-23.30768 l 16.47501,-33.63763 -11.71128,-5.51322 -5.13818,11.37977 c -6.25721,-2.96934 -17.05464,-7.68653 -23.18899,-9.6083 l -4.41353,11.68005 -11.4429,-4.11315 12.13321,-35.438143 C 620.84041,92.758059 602.91427,87.698188 586.05198,84.344395 l -2.532,12.226647 12.63104,2.829784 -5.82956,24.281844 11.77836,3.02096 -3.29472,12.04347 c -11.27907,-3.6648 -34.01695,-8.23684 -46.06686,-9.53912 l 5.27407,-37.082348 -12.84177,-1.624399 -1.37016,12.410587"
       style="fill:none;fill-rule:evenodd;stroke:#ffffff;stroke-width:6;stroke-linecap:butt;stroke-linejoin:miter;stroke-miterlimit:4;stroke-dasharray:none;stroke-opacity:1" />
    <use
       x="0"
       y="0"
       xlink:href="#path4219"
       inkscape:transform-center-x="212.00811"
       inkscape:transform-center-y="207.18174"
       id="use4531"
       transform="matrix(-1,0,0,1,999.97397,0)"
       width="100%"
       height="100%" />
    <use
       x="0"
       y="0"
       xlink:href="#path4221"
       inkscape:transform-center-x="212.21719"
       inkscape:transform-center-y="208.95587"
       id="use4533"
       transform="matrix(-1,0,0,1,999.97397,0)"
       width="100%"
       height="100%" />
  </g>
  <g
     inkscape:groupmode="layer"
     id="layer10"
     inkscape:label="khadag"
     style="display:inline;opacity:1"
     sodipodi:insensitive="true">
    <path
       style="fill:none;fill-rule:evenodd;stroke:#000000;stroke-width:0.5;stroke-linecap:butt;stroke-linejoin:miter;stroke-miterlimit:4;stroke-dasharray:none;stroke-opacity:1"
       d="m 807.8301,987.93082 c 0,0 -38.5742,-7.94156 -56.65428,-36.87205 -18.08007,-28.93049 -26.36676,-48.7795 -46.84883,-48.7795 -20.48207,0 -34.34385,28.14264 -43.44699,37.81473 -9.10314,9.67208 -19.31293,27.3984 -44.14215,28.61395 -24.82922,1.21555 -69.34243,-21.74617 -98.16347,-46.2227"
       id="path4537"
       inkscape:connector-curvature="0"
       sodipodi:nodetypes="czzzzc" />
    <g
       id="g4541">
      <path
         sodipodi:nodetypes="czzzzscszczzczczszszcc"
         inkscape:connector-curvature="0"
         id="path4535"
         d="m 500,924.52829 c 0,0 66.68226,71.1844 110.9359,71.98901 44.25364,0.80461 66.1448,-15.03802 66.1448,-37.55249 0,-22.51447 0.60346,-35.80522 8.44842,-35.80522 7.84496,0 8.85073,8.85073 8.44843,14.48301 -0.40231,5.63228 -0.40231,23.33374 8.85072,23.13258 9.25304,-0.20115 5.22998,0.60346 12.87379,-3.8219 -2.81614,6.83919 -3.62075,4.82767 -3.21845,15.89108 0.40231,11.06341 7.44266,18.50607 24.13835,19.91414 16.69569,1.40807 71.20814,-4.82768 71.20814,-4.82768 0,0 -10.9658,-7.51467 -10.9658,-20.14388 0,-12.62922 -4.72414,-20.89131 -12.5691,-21.09246 -7.84497,-0.20115 -7.01768,1.29616 -13.27609,4.42536 3.1292,-5.68946 7.9485,-17.95141 1.91391,-23.38254 -6.03458,-5.43112 -13.96041,-4.72414 -20.21882,-2.16388 2.84473,-3.69815 5.12824,-14.80017 -2.01153,-22.14703 -7.13977,-7.34687 -13.81602,-8.67038 -24.06982,-10.5218 -10.39433,-1.87678 -21.63467,-0.69838 -32.3935,2.71135 -10.75882,3.40973 -35.81517,25.57496 -42.70507,33.57823 -6.03835,7.0141 -17.30207,22.11589 -42.19273,22.16092 -24.89066,0.045 -55.1878,-13.93919 -70.54935,-28.16285 z"
         style="fill:#5688ff;fill-opacity:1;fill-rule:evenodd;stroke:#c87200;stroke-width:3;stroke-linecap:butt;stroke-linejoin:miter;stroke-miterlimit:4;stroke-dasharray:none;stroke-opacity:1" />
      <path
         inkscape:connector-curvature="0"
         id="path4539"
         d="m 799.98653,985.29735 c -12.88815,-4.28063 -24.38637,-10.32112 -33.20398,-17.44343 -4.40823,-3.56069 -10.67936,-10.24321 -13.51249,-14.39891 -1.35455,-1.9869 -5.58881,-8.77211 -9.40946,-15.07826 -10.5538,-17.41949 -14.87221,-23.46394 -20.43867,-28.60784 -5.62721,-5.20003 -11.48745,-7.65669 -18.37957,-7.70486 -6.60155,-0.0461 -11.43773,1.71929 -17.75993,6.48321 -5.43786,4.09755 -10.39781,9.68354 -18.80619,21.17992 -5.34202,7.30388 -16.75614,20.69976 -21.49591,25.22811 -8.32919,7.95766 -17.01318,12.06486 -27.86431,13.17878 -12.96477,1.33089 -32.20809,-4.19485 -54.47839,-15.64352 -14.16411,-7.28145 -29.60616,-17.17525 -40.74336,-26.10448 l -2.52431,-2.02386 2.52431,-0.21956 c 1.38836,-0.12076 5.27555,-0.30267 8.63819,-0.40426 l 6.11388,-0.1847 1.73108,1.51385 c 13.21248,11.55446 35.52079,21.84722 55.0366,25.39316 5.904,1.07273 16.31325,1.48246 20.94662,0.82451 7.65707,-1.08734 14.23798,-3.50099 20.29927,-7.4451 3.67251,-2.3897 9.5645,-7.98984 16.02268,-15.22899 9.4362,-10.5773 29.1311,-26.52929 38.80861,-31.43326 4.92448,-2.49542 16.4872,-4.66402 24.86735,-4.66389 7.85492,1.2e-4 19.26497,2.10463 24.83931,4.58146 5.16924,2.29682 10.37435,6.97858 12.20545,10.97823 2.21351,4.83494 2.09876,11.48887 -0.27598,16.00333 l -1.11078,2.11161 3.06509,-0.99665 c 4.18832,-1.36187 9.31066,-1.41133 12.63285,-0.12197 3.11344,1.20834 5.45085,3.06307 6.62972,5.26066 0.89612,1.67049 0.9563,2.13678 0.77886,6.03458 -0.20458,4.49391 -1.04363,7.55131 -3.44595,12.55663 -0.66404,1.38354 -1.13979,2.58307 -1.05723,2.66563 0.0826,0.0826 1.82913,-0.81941 3.88126,-2.00437 3.71255,-2.14374 3.75049,-2.15516 7.61103,-2.29095 3.3149,-0.11661 4.1837,-0.006 5.96637,0.7611 5.00308,2.15227 7.79905,8.22523 8.32516,18.0826 0.46064,8.6305 2.30476,13.1541 7.74932,19.00895 0.97737,1.05102 1.61649,1.90614 1.42026,1.90028 -0.19623,-0.006 -2.71027,-0.79235 -5.58676,-1.74774 z"
         style="opacity:1;fill:#ffffff;fill-opacity:1;stroke:#c87200;stroke-width:3;stroke-linecap:butt;stroke-linejoin:round;stroke-miterlimit:4;stroke-dasharray:none;stroke-opacity:1" />
    </g>
    <use
       x="0"
       y="0"
       xlink:href="#g4541"
       id="use4545"
       transform="matrix(-1,0,0,1,1000.0239,0)"
       width="100%"
       height="100%" />
  </g>
  <g
     inkscape:groupmode="layer"
     id="layer12"
     inkscape:label="conch"
     style="display:inline"
     sodipodi:insensitive="true">
    <path
       style="display:inline;opacity:1;fill:#f79018;fill-opacity:1;stroke:#c87200;stroke-width:3;stroke-linecap:butt;stroke-linejoin:round;stroke-miterlimit:4;stroke-dasharray:none;stroke-opacity:1"
       d="m 548.46837,893.38922 c -1.41421,21.09826 -14.92501,44.60914 -23.69606,60.9841 -4.38552,8.18748 -6.10756,15.31325 -11.90623,19.89215 -5.79868,4.5789 -5.67399,-2.38907 -12.36608,-2.38907 -6.69209,0 -7.5674,12.46797 -13.36608,7.88907 -5.79867,-4.5789 -6.55824,-15.93871 -10.40623,-24.39215 -6.77105,-14.87496 -25.06784,-46.1857 -25.19606,-61.9841 -0.41124,-50.66929 23.11424,-90.48718 48.46837,-90.48718 25.35413,0 51.81067,40.62438 48.46837,90.48718 z"
       id="path4547"
       inkscape:connector-curvature="0"
       sodipodi:nodetypes="ssssssszs" />
    <path
       style="display:inline;opacity:1;fill:#5688ff;fill-opacity:1;fill-rule:evenodd;stroke:#c87200;stroke-width:3;stroke-linecap:butt;stroke-linejoin:miter;stroke-miterlimit:4;stroke-dasharray:none;stroke-opacity:1"
       d="m 457.28944,920.75152 c 23.05446,-6.82358 24.7301,-6.53239 41.23651,-6.61523 16.50641,-0.0828 26.00621,-0.52282 44.91459,5.91408 l 3.81037,-12.17841 C 526.93446,900.42931 518.918,899.33432 500,899.33432 c -18.918,0 -26.19872,2.09787 -47.52093,9.33938 z"
       id="path4550"
       inkscape:connector-curvature="0"
       sodipodi:nodetypes="czcczcc" />
    <path
       style="display:inline;opacity:1;fill:none;fill-rule:evenodd;stroke:#ffffff;stroke-width:5;stroke-linecap:butt;stroke-linejoin:miter;stroke-miterlimit:4;stroke-dasharray:none;stroke-opacity:1"
       d="m 545.85811,866.72691 c -36.50519,5.63058 -57.08413,6.30323 -90.84071,0.69876"
       id="path4552"
       inkscape:connector-curvature="0"
       sodipodi:nodetypes="cc" />
    <path
       style="display:inline;opacity:1;fill:none;fill-rule:evenodd;stroke:#ffffff;stroke-width:5;stroke-linecap:butt;stroke-linejoin:miter;stroke-miterlimit:4;stroke-dasharray:none;stroke-opacity:1"
       d="m 542.66927,851.86355 c -31.61132,9.08566 -54.87545,8.98346 -84.32761,0.60635"
       id="path4554"
       inkscape:connector-curvature="0"
       sodipodi:nodetypes="cc" />
    <path
       style="display:inline;opacity:1;fill:none;fill-rule:evenodd;stroke:#ffffff;stroke-width:5;stroke-linecap:butt;stroke-linejoin:miter;stroke-miterlimit:4;stroke-dasharray:none;stroke-opacity:1"
       d="m 537.62772,838.03102 c -23.71769,10.57114 -49.04395,10.46579 -74.0136,-0.35738"
       id="path4556"
       inkscape:connector-curvature="0"
       sodipodi:nodetypes="cc" />
    <path
       style="display:inline;opacity:1;fill:none;fill-rule:evenodd;stroke:#ffffff;stroke-width:5;stroke-linecap:butt;stroke-linejoin:miter;stroke-miterlimit:4;stroke-dasharray:none;stroke-opacity:1"
       d="m 530.35611,824.93289 c -19.6183,13.39816 -42.40387,9.2379 -43.85271,-3.32363 -1.13353,-9.82773 6.75109,-13.95906 13.31312,-14.64867 4.95328,-0.52055 12.76704,3.78727 12.12841,8.72672 -0.5478,4.23694 -4.29132,7.84199 -11.96517,4.59351"
       id="path4558"
       inkscape:connector-curvature="0"
       sodipodi:nodetypes="csaac" />
    <path
       sodipodi:nodetypes="czcczcc"
       inkscape:connector-curvature="0"
       id="path4560"
       d="m 452.47907,908.6737 c 23.05446,-6.82358 31.01452,-9.25654 47.52093,-9.33938 16.50641,-0.0828 28.34253,2.10074 47.25091,8.53764 l 1.80461,-8.84198 c -17.70146,-9.45418 -30.35585,-12.85094 -49.27385,-12.85094 -18.918,0 -29.39423,4.08658 -48.70491,13.74192 z"
       style="display:inline;opacity:1;fill:#ffffff;fill-opacity:1;fill-rule:evenodd;stroke:#c87200;stroke-width:3;stroke-linecap:butt;stroke-linejoin:miter;stroke-miterlimit:4;stroke-dasharray:none;stroke-opacity:1" />
  </g>
  <g
     inkscape:groupmode="layer"
     id="layer9"
     inkscape:label="leaves"
     style="display:inline;opacity:1"
     sodipodi:insensitive="true">
    <path
       style="fill:#60db66;fill-opacity:1;fill-rule:evenodd;stroke:#744850;stroke-width:3;stroke-linecap:butt;stroke-linejoin:round;stroke-miterlimit:4;stroke-dasharray:none;stroke-opacity:1"
       d="m 559.90996,902.14036 c 58.12615,-19.26702 76.36621,-32.55368 95.68139,-74.83342 -47.46952,6.26961 -78.50698,28.97366 -95.68139,74.83342 z"
       id="path4399"
       inkscape:connector-curvature="0"
       sodipodi:nodetypes="ccc" />
    <use
       x="0"
       y="0"
       xlink:href="#path4399"
       id="use4415"
       transform="matrix(0.77272702,-0.63473848,-0.63473848,-0.77272702,700.4796,1954.7903)"
       width="100%"
       height="100%" />
    <use
       x="0"
       y="0"
       xlink:href="#path4399"
       id="use4417"
       transform="matrix(0.99626675,-0.08632823,0.08632823,0.99626675,6.305046,25.187329)"
       width="100%"
       height="100%" />
    <use
       x="0"
       y="0"
       xlink:href="#use4415"
       id="use4419"
       transform="matrix(0.98761703,-0.15688403,0.15688403,0.98761703,-51.778333,73.630773)"
       width="100%"
       height="100%" />
    <use
       x="0"
       y="0"
       xlink:href="#use4417"
       id="use4421"
       transform="matrix(0.11387259,-0.99349537,-0.99349537,-0.11387259,1510.0891,1578.6817)"
       width="100%"
       height="100%" />
    <use
       x="0"
       y="0"
       xlink:href="#path4399"
       id="use4433"
       transform="matrix(-1,0,0,1,999.5723,0)"
       width="100%"
       height="100%" />
    <use
       x="0"
       y="0"
       xlink:href="#use4415"
       id="use4435"
       transform="matrix(-1,0,0,1,999.5723,0)"
       width="100%"
       height="100%" />
    <use
       x="0"
       y="0"
       xlink:href="#use4417"
       id="use4437"
       transform="matrix(-1,0,0,1,999.5723,0)"
       width="100%"
       height="100%" />
    <use
       x="0"
       y="0"
       xlink:href="#use4419"
       id="use4439"
       transform="matrix(-1,0,0,1,999.5723,0)"
       width="100%"
       height="100%" />
    <use
       x="0"
       y="0"
       xlink:href="#use4421"
       id="use4441"
       transform="matrix(-1,0,0,1,999.5723,0)"
       width="100%"
       height="100%" />
  </g>
  <g
     inkscape:groupmode="layer"
     id="layer11"
     inkscape:label="jewel"
     style="display:inline"
     sodipodi:insensitive="true">
    <path
       style="opacity:1;fill:#fbfe00;fill-opacity:1;stroke:none;stroke-width:1;stroke-linecap:butt;stroke-linejoin:round;stroke-miterlimit:4;stroke-dasharray:none;stroke-opacity:1"
       d="m 500.03711,1.0703125 c -13.33575,3.9230972 -16.80903,19.3628515 -23.01367,29.9804685 -4.65206,7.548002 -5.13811,16.925338 -9.34961,24.544922 -10.55273,6.622021 -12.76011,19.478466 -19.36461,29.273224 -7.37451,15.844483 -12.51629,36.436013 -1.93227,51.951383 13.00985,15.29444 40.18815,14.70573 52.32032,-1.375 4.8709,-0.89145 6.52587,5.67527 10.90625,7.23633 16.33922,10.42403 43.10805,4.7739 49.30859,-14.94141 C 564.873,107.05532 553.92585,86.344668 543.64062,68.785156 540.19564,62.685388 534.18855,58.166509 531.00801,52.147357 527.10764,33.398107 518.03145,15.147183 503.86914,1.9355469 502.71688,1.2659056 501.36541,0.96080653 500.03711,1.0703125 Z"
       id="path4210"
       inkscape:connector-curvature="0" />
    <path
       sodipodi:nodetypes="czc"
       inkscape:connector-curvature="0"
       id="path4233"
       d="m 499.99952,9.63499 c -22.0248,31.10976 -36.57636,75.10787 0,75.10787 36.57636,0 24.52762,-43.10925 0,-75.10787 z"
       style="fill:#425afe;fill-opacity:1;fill-rule:evenodd;stroke:#fdff11;stroke-width:0.94332004;stroke-linecap:butt;stroke-linejoin:round;stroke-miterlimit:4;stroke-dasharray:none;stroke-opacity:1" />
    <path
       style="fill:#ff4b4b;fill-opacity:1;fill-rule:evenodd;stroke:#fdff11;stroke-width:0.94302893;stroke-linecap:butt;stroke-linejoin:round;stroke-miterlimit:4;stroke-dasharray:none;stroke-opacity:1"
       d="m 471.80874,63.0002 c -22.01112,31.10988 -36.55365,75.10815 0,75.10815 36.55366,0 24.5124,-43.10941 0,-75.10815 z"
       id="path4235"
       inkscape:connector-curvature="0"
       sodipodi:nodetypes="czc" />
    <path
       sodipodi:nodetypes="czc"
       inkscape:connector-curvature="0"
       id="path4237"
       d="m 528.19081,63.0002 c -22.01113,31.10988 -36.55365,75.10815 0,75.10815 36.55365,0 24.51239,-43.10941 0,-75.10815 z"
       style="fill:#00b400;fill-opacity:1;fill-rule:evenodd;stroke:#fdff11;stroke-width:0.94302893;stroke-linecap:butt;stroke-linejoin:round;stroke-miterlimit:4;stroke-dasharray:none;stroke-opacity:1" />
    <path
       style="fill:#92a0fe;fill-opacity:1;fill-rule:evenodd;stroke:none;stroke-width:0.74167722;stroke-linecap:butt;stroke-linejoin:round;stroke-miterlimit:4;stroke-dasharray:none;stroke-opacity:1"
       d="m 500.08799,9.53418 c -17.31681,24.45978 -28.75785,59.05291 0,59.05291 28.75785,0 19.28463,-33.89428 0,-59.05291 z"
       id="path4245"
       inkscape:connector-curvature="0"
       sodipodi:nodetypes="czc" />
    <path
       sodipodi:nodetypes="czc"
       inkscape:connector-curvature="0"
       id="path4248"
       d="m 500.18363,9.42519 c -12.22709,17.27061 -20.3054,41.6962 0,41.6962 20.30541,0 13.61653,-23.93214 0,-41.6962 z"
       style="fill:#e1e5ff;fill-opacity:1;fill-rule:evenodd;stroke:none;stroke-width:0.52368498;stroke-linecap:butt;stroke-linejoin:round;stroke-miterlimit:4;stroke-dasharray:none;stroke-opacity:1" />
    <path
       sodipodi:nodetypes="czc"
       inkscape:connector-curvature="0"
       id="path4250"
       d="m 471.75456,63.84486 c -17.31681,24.45978 -28.75785,59.05291 0,59.05291 28.75785,0 19.28463,-33.89428 0,-59.05291 z"
       style="fill:#ff9191;fill-opacity:1;fill-rule:evenodd;stroke:none;stroke-width:0.74167722;stroke-linecap:butt;stroke-linejoin:round;stroke-miterlimit:4;stroke-dasharray:none;stroke-opacity:1" />
    <path
       style="fill:#ffe1e1;fill-opacity:1;fill-rule:evenodd;stroke:none;stroke-width:0.52368498;stroke-linecap:butt;stroke-linejoin:round;stroke-miterlimit:4;stroke-dasharray:none;stroke-opacity:1"
       d="m 471.8502,63.73587 c -12.22709,17.27061 -20.3054,41.6962 0,41.6962 20.30541,0 13.61653,-23.93214 0,-41.6962 z"
       id="path4252"
       inkscape:connector-curvature="0"
       sodipodi:nodetypes="czc" />
    <path
       style="fill:#00e600;fill-opacity:1;fill-rule:evenodd;stroke:none;stroke-width:0.74167722;stroke-linecap:butt;stroke-linejoin:round;stroke-miterlimit:4;stroke-dasharray:none;stroke-opacity:1"
       d="m 528.0652,63.84486 c -17.31681,24.45978 -28.75785,59.05291 0,59.05291 28.75785,0 19.28463,-33.89428 0,-59.05291 z"
       id="path4254"
       inkscape:connector-curvature="0"
       sodipodi:nodetypes="czc" />
    <path
       sodipodi:nodetypes="czc"
       inkscape:connector-curvature="0"
       id="path4256"
       d="m 528.16084,63.73587 c -12.22709,17.27061 -20.3054,41.6962 0,41.6962 20.30541,0 13.61653,-23.93214 0,-41.6962 z"
       style="fill:#e1ffe1;fill-opacity:1;fill-rule:evenodd;stroke:none;stroke-width:0.52368498;stroke-linecap:butt;stroke-linejoin:round;stroke-miterlimit:4;stroke-dasharray:none;stroke-opacity:1" />
  </g>
</svg>
