<?xml version="1.0" encoding="UTF-8" standalone="no"?>
<!-- Created with Inkscape (http://www.inkscape.org/) -->

<svg
   xmlns:dc="http://purl.org/dc/elements/1.1/"
   xmlns:cc="http://creativecommons.org/ns#"
   xmlns:rdf="http://www.w3.org/1999/02/22-rdf-syntax-ns#"
   xmlns:svg="http://www.w3.org/2000/svg"
   xmlns="http://www.w3.org/2000/svg"
   xmlns:xlink="http://www.w3.org/1999/xlink"
   xmlns:sodipodi="http://sodipodi.sourceforge.net/DTD/sodipodi-0.dtd"
   xmlns:inkscape="http://www.inkscape.org/namespaces/inkscape"
   width="800"
   height="800"
   viewBox="0 0 800.00001 800.00001"
   id="svg2"
   version="1.1"
   inkscape:version="0.91 r13725"
   sodipodi:docname="Mn coa töv aimag.svg">
  <title
     id="title9588">Coat of Arms of Töv Aimag</title>
  <defs
     id="defs4">
    <linearGradient
       inkscape:collect="always"
       id="linearGradient9580">
      <stop
         style="stop-color:#103715;stop-opacity:1"
         offset="0"
         id="stop9582" />
      <stop
         style="stop-color:#23892e;stop-opacity:1"
         offset="1"
         id="stop9584" />
    </linearGradient>
    <radialGradient
       inkscape:collect="always"
       xlink:href="#linearGradient9580"
       id="radialGradient9586"
       cx="402.93533"
       cy="386.66708"
       fx="402.93533"
       fy="386.66708"
       r="374.86697"
       gradientTransform="matrix(0.76610039,0,0,0.36554991,94.246418,259.2058)"
       gradientUnits="userSpaceOnUse" />
  </defs>
  <sodipodi:namedview
     id="base"
     pagecolor="#ffffff"
     bordercolor="#666666"
     borderopacity="1.0"
     inkscape:pageopacity="0.0"
     inkscape:pageshadow="2"
     inkscape:zoom="0.70710678"
     inkscape:cx="333.73323"
     inkscape:cy="452.18949"
     inkscape:document-units="px"
     inkscape:current-layer="layer3"
     showgrid="false"
     units="px"
     borderlayer="true"
     inkscape:showpageshadow="false"
     inkscape:window-width="1440"
     inkscape:window-height="810"
     inkscape:window-x="240"
     inkscape:window-y="48"
     inkscape:window-maximized="0"
     inkscape:snap-global="false"
     showguides="true"
     inkscape:guide-bbox="true" />
  <metadata
     id="metadata7">
    <rdf:RDF>
      <cc:Work
         rdf:about="">
        <dc:format>image/svg+xml</dc:format>
        <dc:type
           rdf:resource="http://purl.org/dc/dcmitype/StillImage" />
        <dc:title>Coat of Arms of Töv Aimag</dc:title>
        <dc:date>2016-05-29</dc:date>
        <dc:rights>
          <cc:Agent>
            <dc:title>PD-Mongolia-exempt</dc:title>
          </cc:Agent>
        </dc:rights>
        <dc:publisher>
          <cc:Agent>
            <dc:title>Created for Wikimedia Commons</dc:title>
          </cc:Agent>
        </dc:publisher>
      </cc:Work>
    </rdf:RDF>
  </metadata>
  <g
     inkscape:groupmode="layer"
     id="layer2"
     inkscape:label="background"
     style="display:inline;opacity:1"
     sodipodi:insensitive="true">
    <ellipse
       style="opacity:1;fill:#333264;fill-opacity:1;stroke:#ffd201;stroke-width:118.75259399;stroke-linecap:square;stroke-linejoin:miter;stroke-miterlimit:4;stroke-dasharray:none;stroke-opacity:1"
       id="path4148"
       cx="400"
       cy="400"
       rx="340.62369"
       ry="340.62372" />
  </g>
  <g
     inkscape:groupmode="layer"
     id="layer8"
     inkscape:label="pattern"
     style="opacity:1"
     sodipodi:insensitive="true">
    <path
       style="fill:#395ca7;fill-opacity:1;fill-rule:evenodd;stroke:none;stroke-width:1px;stroke-linecap:butt;stroke-linejoin:miter;stroke-opacity:1"
       d="m 447.38281,125.9375 c -4.7002,0.0806 -9.57913,3.00196 -12.8125,7.18359 -31.82663,-9.54971 -19.73676,56.41415 -17.28125,80.07227 l -5.96484,95.25195 -8.83594,0 c -0.27,0 -0.48828,0.21829 -0.48828,0.48828 l 0,29.83008 c 0,0.27 0.2217,0.44546 0.48828,0.48828 l 249.02344,40 C 651.7783,379.29477 652,379.03367 652,378.76367 l 0,-29.83008 c 0,-0.26999 -0.22318,-0.43706 -0.48828,-0.48828 l -19.82422,-3.83008 c 5.40435,-9.94719 11.84688,-23.53416 17.99552,-21.28864 6.14865,2.24552 7.52855,7.04931 4.74949,11.64171 3.57029,2.38089 6.45961,3.48269 8.86042,0.74858 2.4008,-2.73411 1.85155,-5.99032 -1.6484,-7.99032 2.42734,-5.15844 3.27153,-12.70558 -7.26172,-16.55273 -10.53325,-3.84715 -17.4795,4.04074 -20.58593,11.89258 -3.10643,7.85184 -6.98122,15.27816 -10.19727,19.98632 l -6.56445,-1.26757 c 7.90936,-18.16554 16.53021,-38.04505 17.57226,-40.90235 2.34031,-6.41711 -3.70987,-8.29135 -5.64453,-1.35742 -1.37851,4.94066 -7.62129,20.83699 -16.50977,41.375 l -8.95507,-1.73047 c 7.28048,-17.46444 14.46189,-35.0897 17.58203,-42.23633 4.77428,-10.9354 9.37818,-16.57163 16.89648,-13.74804 7.51831,2.82359 6.0503,10.36379 4.0586,16.83984 9.02905,3.85777 11.29222,1.0346 12.86914,-5.29101 1.57691,-6.32561 -8.5625,-12.93555 -8.5625,-12.93555 1.05609,-4.12428 0.45153,-16.38114 -13.59571,-15.46485 -14.14672,0.92279 -19.50377,6.85319 -23.33984,24.69141 -2.26227,10.51984 -10.13319,34.73617 -14.95898,46.39649 l -5.40625,-1.04493 c 5.32757,-22.82733 19.38655,-73.28457 20.32031,-78.35351 1.23744,-6.71752 -5.03972,-7.55595 -5.79102,-0.39649 -0.59397,5.66026 -4.82182,25.5597 -11.18164,50.81836 l -9.04883,0 c 4.84247,-20.65869 9.88461,-43.46559 12.02539,-52.06054 2.88388,-11.57842 6.48331,-17.90338 14.36719,-16.37305 7.88389,1.53033 7.69444,9.21022 6.81055,15.92773 9.54594,2.2981 12.64648,-1.78125 13.14648,-8.28125 0.5,-6.5 -11.93945,-10.4082 -11.93945,-10.4082 0.35355,-4.24264 -0.31301,-17.27938 -14.48242,-16.82227 -14.16942,0.4571 -17.57194,20.40966 -20.18164,38.58399 -2.1015,14.6351 -3.40473,24.65282 -9.02344,49.43359 l -9.9375,0 c 5.16265,-19.68716 10.12181,-43.84853 10.63672,-53.52734 0.7494,-14.08655 2.28676,-16.56173 6.23828,-26.16797 -9.125,2.125 -13.94782,12.14611 -14.54492,27.25 -0.46757,11.82755 -4.19325,26.49396 -14.53711,52.44531 l -12.52539,0 c 16.41643,-29.84525 17.62921,-47.27138 18.13476,-56.82226 0.61871,-11.6887 -0.31164,-17.99025 5.4336,-27.00586 -4.47487,-1.77404 -7.76069,-3.61801 -6.91602,-10.0918 -8.70581,2.85285 -6.56511,21.41488 -8.45703,41.7207 -1.31335,14.09605 -6.43358,32.13653 -15.17383,52.19922 l -12.13281,0 c 14.31668,-26.96802 18.09777,-51.3019 18.10156,-77.30273 0.004,-27.39759 9.28911,-29.36303 18.27539,-28.6582 9.01561,0.70711 12.08315,7.58884 8.59571,14.51562 9.125,8.375 21.61289,3.1433 23.52343,-4.94922 1.74421,-7.38801 -1.68945,-16.55273 -10.68945,-16.55273 -0.625,-14.125 -14.14468,-18.77667 -20.90234,-18.61719 -6.75766,0.15948 -15.3711,4.77148 -15.9961,14.02148 -20.20449,5.62785 -18.74547,30.81251 -16.05078,47.3125 2.54719,15.59685 -0.67926,41.19654 -17.46289,70.23047 l -12.36523,0 c 23.32908,-38.76729 20.88189,-65.25757 18.94922,-82.7539 -2.07583,-18.79226 -1.41463,-24.37647 3.88867,-28.97266 -10.04334,-1.95082 -15.6276,-4.23486 -17.25782,-13.89063 -6.59705,14.52228 3.72194,30.444 5.50782,54.09376 1.54606,20.47395 -4.01297,43.01931 -16.48828,71.52343 l -7.90625,0 c 13.91804,-32.34989 15.46125,-73.33554 10.43554,-98.8164 -5.49083,-27.83907 -1.63071,-40.87472 8.18555,-41.00391 9.81626,-0.12919 12.75,7.25 10,13.875 6.25,4.25 10,4.375 14.75,3.5 4.75,-0.875 8.125,-7.375 8.25,-14 0.125,-6.625 -6.60547,-10.57812 -12.73047,-11.20312 1.125,-8.62502 -7.68613,-16.21542 -14.77344,-17.74208 -7.08731,-1.52665 -14.07557,0.24664 -18.51171,6.32215 -24.95164,2.70029 -6.61177,56.16415 -4.15626,75.32227 2.35181,18.34892 3.77265,47.8615 -9.74023,83.74609 l -7.56445,0 c 12.89381,-37.95042 10.59578,-68.36798 6.49804,-88.29883 -4.2729,-20.78283 -5.58698,-27.09246 -5.58398,-38.45898 0.003,-11.36652 -8.89676,-10.20285 -9.01953,1.36523 -0.12277,11.56807 4.35784,23.28165 8.45703,41.19727 3.57948,15.64423 0.14292,54.85978 -7.27734,84.19531 l -9.48243,0 c 13.22746,-39.10402 8.14774,-81.57538 4.88477,-94.82031 -3.48744,-14.15609 -5.43466,-21.13609 -8.51562,-32.09375 2.55916,-6.19852 2.88183,-21.82678 -4.53321,-21.29492 -7.41504,0.53186 -6.06154,10.79479 -4.11914,18.29101 1.9424,7.49623 5.43437,18.20057 9.70117,38.00977 3.92088,18.20321 3.86844,54.85259 -9.9375,91.9082 l -7.31054,0 c 13.1142,-41.52257 10.81197,-86.67885 2.42578,-115.20117 -8.8836,-30.21407 -5.81626,-44.12081 6.875,-45.125 12.69126,-1.00419 16.625,7.75 13.875,14.375 8.73732,5.06036 15.64848,-1.19382 16.125,-7.875 0.47652,-6.68118 -1.73047,-11.32812 -9.48047,-12.32812 3.25,-8.75 -1.93808,-12.77608 -7.77539,-15.42774 -1.45933,-0.66291 -3.00553,-0.95264 -4.57227,-0.92578 z"
       id="path7981"
       inkscape:connector-curvature="0"
       sodipodi:nodetypes="scccssssssssczczczzccssccsscscssccssccsscscssccscsccsccsccsscscscsccsccsccsscsscscsccssssccscsssccsscscss" />
    <use
       x="0"
       y="0"
       xlink:href="#path7981"
       id="use8007"
       transform="matrix(-1,0,0,1,800,0)"
       width="100%"
       height="100%" />
    <use
       x="0"
       y="0"
       xlink:href="#path7981"
       id="use8009"
       transform="matrix(1,0,0,-1,0,798.12707)"
       width="100%"
       height="100%" />
    <use
       x="0"
       y="0"
       xlink:href="#use8007"
       id="use8011"
       transform="matrix(1,0,0,-1,-2,798.12707)"
       width="100%"
       height="100%" />
  </g>
  <g
     inkscape:groupmode="layer"
     id="layer6"
     inkscape:label="circles"
     style="display:inline"
     sodipodi:insensitive="true">
    <circle
       style="opacity:1;fill:none;fill-opacity:1;stroke:#e94f3f;stroke-width:10;stroke-linecap:square;stroke-linejoin:miter;stroke-miterlimit:4;stroke-dasharray:none;stroke-opacity:1"
       id="path4174"
       cx="400"
       cy="400"
       r="385" />
    <circle
       cy="400"
       cx="400"
       id="circle4176"
       style="opacity:1;fill:none;fill-opacity:1;stroke:#e94f3f;stroke-width:10;stroke-linecap:square;stroke-linejoin:miter;stroke-miterlimit:4;stroke-dasharray:none;stroke-opacity:1"
       r="294.97971" />
    <g
       id="g4451"
       inkscape:transform-center-x="0.00032042688"
       inkscape:transform-center-y="380.02167"
       transform="translate(0,-1)">
      <path
         id="path4178"
         style="opacity:1;fill:none;fill-opacity:1;stroke:#e94f3f;stroke-width:8;stroke-linecap:square;stroke-linejoin:miter;stroke-miterlimit:4;stroke-dasharray:none;stroke-opacity:1"
         sodipodi:type="arc"
         sodipodi:cx="400"
         sodipodi:cy="780"
         sodipodi:rx="75"
         sodipodi:ry="75"
         sodipodi:start="3.2112472"
         sodipodi:end="6.2029415"
         d="m 325.18187,774.78013 a 75,75 0 0 1 74.42103,-69.77908 75,75 0 0 1 75.15576,68.98712"
         sodipodi:open="true" />
      <path
         style="opacity:1;fill:none;fill-opacity:1;stroke:#e94f3f;stroke-width:8;stroke-linecap:square;stroke-linejoin:miter;stroke-miterlimit:4;stroke-dasharray:none;stroke-opacity:1"
         id="circle4182"
         sodipodi:type="arc"
         sodipodi:cx="400"
         sodipodi:cy="780"
         sodipodi:rx="55"
         sodipodi:ry="55"
         sodipodi:start="3.1679024"
         sodipodi:end="0.0034434614"
         sodipodi:open="true"
         d="m 345.01903,778.55313 a 55,55 0 0 1 55.79915,-53.54704 55,55 0 0 1 54.18149,55.1833" />
      <path
         id="circle4184"
         style="opacity:1;fill:none;fill-opacity:1;stroke:#e94f3f;stroke-width:8;stroke-linecap:square;stroke-linejoin:miter;stroke-miterlimit:4;stroke-dasharray:none;stroke-opacity:1"
         sodipodi:type="arc"
         sodipodi:cx="400"
         sodipodi:cy="780"
         sodipodi:rx="35"
         sodipodi:ry="35"
         sodipodi:start="3.1071236"
         sodipodi:end="0.047417836"
         sodipodi:open="true"
         d="m 365.02079,781.20618 a 35,35 0 0 1 17.26223,-31.39076 35,35 0 0 1 35.82332,0.23194 35,35 0 0 1 16.85432,31.61164" />
      <path
         style="opacity:1;fill:none;fill-opacity:1;stroke:#e94f3f;stroke-width:8;stroke-linecap:square;stroke-linejoin:miter;stroke-miterlimit:4;stroke-dasharray:none;stroke-opacity:1"
         id="circle4186"
         sodipodi:type="arc"
         sodipodi:cx="400"
         sodipodi:cy="780"
         sodipodi:rx="15"
         sodipodi:ry="15"
         sodipodi:start="3.0090411"
         sodipodi:end="0.14121481"
         d="m 385.13158,781.98246 a 15,15 0 0 1 6.83851,-14.65213 15,15 0 0 1 16.16927,0.07 15,15 0 0 1 6.71133,14.71082"
         sodipodi:open="true" />
    </g>
    <g
       inkscape:transform-center-y="345.79024"
       id="g4197"
       transform="matrix(0.90996127,-0.41469324,0.41469324,0.90996127,-129.85955,201.8923)"
       inkscape:transform-center-x="-157.58569" />
    <g
       id="g4602"
       inkscape:transform-center-x="-130.03696"
       inkscape:transform-center-y="314.89852"
       transform="matrix(0.99706587,0.07654833,-0.07654833,0.99706587,31.791604,-29.411437)">
      <g
         transform="matrix(0.91333631,-0.40720606,0.40720606,0.91333631,-128.52336,197.44405)"
         id="g4458"
         inkscape:transform-center-x="-154.58518"
         inkscape:transform-center-y="346.83243">
        <path
           sodipodi:open="true"
           d="m 431.44774,711.91153 a 75,75 0 0 1 43.4646,64.46345"
           sodipodi:end="6.2348329"
           sodipodi:start="5.1450666"
           sodipodi:ry="75"
           sodipodi:rx="75"
           sodipodi:cy="780"
           sodipodi:cx="400"
           sodipodi:type="arc"
           id="circle4460"
           style="opacity:1;fill:none;fill-opacity:1;stroke:#e94f3f;stroke-width:8;stroke-linecap:square;stroke-linejoin:miter;stroke-miterlimit:4;stroke-dasharray:none;stroke-opacity:1" />
        <path
           sodipodi:open="true"
           d="m 424.9176,730.96824 a 55,55 0 0 1 30.08224,49.16502"
           sodipodi:end="0.002422981"
           sodipodi:start="5.1825696"
           sodipodi:ry="55"
           sodipodi:rx="55"
           sodipodi:cy="780"
           sodipodi:cx="400"
           sodipodi:type="arc"
           style="opacity:1;fill:none;fill-opacity:1;stroke:#e94f3f;stroke-width:8;stroke-linecap:square;stroke-linejoin:miter;stroke-miterlimit:4;stroke-dasharray:none;stroke-opacity:1"
           id="circle4462" />
        <path
           d="m 417.33292,749.59326 a 35,35 0 0 1 17.63504,31.9041"
           sodipodi:open="true"
           sodipodi:end="0.042794863"
           sodipodi:start="5.2304843"
           sodipodi:ry="35"
           sodipodi:rx="35"
           sodipodi:cy="780"
           sodipodi:cx="400"
           sodipodi:type="arc"
           id="circle4464"
           style="opacity:1;fill:none;fill-opacity:1;stroke:#e94f3f;stroke-width:8;stroke-linecap:square;stroke-linejoin:miter;stroke-miterlimit:4;stroke-dasharray:none;stroke-opacity:1" />
        <path
           d="m 404.46928,765.68129 a 15,15 0 0 1 10.20866,17.41035"
           sodipodi:open="true"
           sodipodi:end="0.20759708"
           sodipodi:start="5.0149353"
           sodipodi:ry="15"
           sodipodi:rx="15"
           sodipodi:cy="780"
           sodipodi:cx="400"
           sodipodi:type="arc"
           style="opacity:1;fill:none;fill-opacity:1;stroke:#e94f3f;stroke-width:8;stroke-linecap:square;stroke-linejoin:miter;stroke-miterlimit:4;stroke-dasharray:none;stroke-opacity:1"
           id="circle4466" />
        <path
           sodipodi:open="true"
           d="m 441.23835,694.4173 a 95,95 0 0 1 53.15513,74.8649"
           sodipodi:end="6.1701257"
           sodipodi:start="5.1614145"
           sodipodi:ry="95"
           sodipodi:rx="95"
           sodipodi:cy="780"
           sodipodi:cx="400"
           sodipodi:type="arc"
           style="opacity:1;fill:none;fill-opacity:1;stroke:#e94f3f;stroke-width:8;stroke-linecap:square;stroke-linejoin:miter;stroke-miterlimit:4;stroke-dasharray:none;stroke-opacity:1"
           id="circle4468" />
      </g>
      <g
         transform="matrix(0.97894069,-0.20414486,0.20414486,0.97894069,-89.874073,11.664503)"
         id="g4590"
         inkscape:transform-center-x="-61.366323"
         inkscape:transform-center-y="293.98039">
        <path
           d="m 473.98415,767.69776 a 75,75 0 0 1 -46.65074,82.1441"
           sodipodi:end="1.1977591"
           sodipodi:start="6.1184108"
           sodipodi:ry="75"
           sodipodi:rx="75"
           sodipodi:cy="780"
           sodipodi:cx="400"
           sodipodi:type="arc"
           id="circle4592"
           style="opacity:1;fill:none;fill-opacity:1;stroke:#e94f3f;stroke-width:8;stroke-linecap:square;stroke-linejoin:miter;stroke-miterlimit:4;stroke-dasharray:none;stroke-opacity:1"
           sodipodi:open="true" />
        <path
           d="m 454.5091,772.66799 a 55,55 0 0 1 -30.60565,56.86609"
           sodipodi:end="1.1211932"
           sodipodi:start="6.149478"
           sodipodi:ry="55"
           sodipodi:rx="55"
           sodipodi:cy="780"
           sodipodi:cx="400"
           sodipodi:type="arc"
           style="opacity:1;fill:none;fill-opacity:1;stroke:#e94f3f;stroke-width:8;stroke-linecap:square;stroke-linejoin:miter;stroke-miterlimit:4;stroke-dasharray:none;stroke-opacity:1"
           id="circle4594"
           sodipodi:open="true" />
        <path
           d="m 434.85689,776.83821 a 35,35 0 0 1 -21.03828,35.31838"
           sodipodi:end="1.1649272"
           sodipodi:start="6.192725"
           sodipodi:ry="35"
           sodipodi:rx="35"
           sodipodi:cy="780"
           sodipodi:cx="400"
           sodipodi:type="arc"
           id="circle4596"
           style="opacity:1;fill:none;fill-opacity:1;stroke:#e94f3f;stroke-width:8;stroke-linecap:square;stroke-linejoin:miter;stroke-miterlimit:4;stroke-dasharray:none;stroke-opacity:1"
           sodipodi:open="true" />
        <path
           d="m 414.66481,776.84668 a 15,15 0 0 1 -4.46796,14.15443 15,15 0 0 1 -14.45229,3.3826"
           sodipodi:end="1.8584424"
           sodipodi:start="6.0713837"
           sodipodi:ry="15"
           sodipodi:rx="15"
           sodipodi:cy="780"
           sodipodi:cx="400"
           sodipodi:type="arc"
           style="opacity:1;fill:none;fill-opacity:1;stroke:#e94f3f;stroke-width:8;stroke-linecap:square;stroke-linejoin:miter;stroke-miterlimit:4;stroke-dasharray:none;stroke-opacity:1"
           id="circle4598"
           sodipodi:open="true" />
        <path
           d="M 493.87533,765.42526 A 95,95 0 0 1 453.5505,858.46874"
           sodipodi:open="true"
           sodipodi:end="0.97195051"
           sodipodi:start="6.1291587"
           sodipodi:ry="95"
           sodipodi:rx="95"
           sodipodi:cy="780"
           sodipodi:cx="400"
           sodipodi:type="arc"
           style="opacity:1;fill:none;fill-opacity:1;stroke:#e94f3f;stroke-width:8;stroke-linecap:square;stroke-linejoin:miter;stroke-miterlimit:4;stroke-dasharray:none;stroke-opacity:1"
           id="circle4600" />
      </g>
    </g>
    <g
       transform="matrix(0.9390354,-0.34382046,0.34382046,0.9390354,-113.11461,161.94096)"
       inkscape:transform-center-y="314.89852"
       inkscape:transform-center-x="-130.03696"
       id="use4772">
      <g
         inkscape:transform-center-y="346.83243"
         inkscape:transform-center-x="-154.58518"
         id="g4776"
         transform="matrix(0.91333631,-0.40720606,0.40720606,0.91333631,-128.52336,197.44405)">
        <path
           style="opacity:1;fill:none;fill-opacity:1;stroke:#e94f3f;stroke-width:8;stroke-linecap:square;stroke-linejoin:miter;stroke-miterlimit:4;stroke-dasharray:none;stroke-opacity:1"
           id="path4778"
           sodipodi:type="arc"
           sodipodi:cx="400"
           sodipodi:cy="780"
           sodipodi:rx="75"
           sodipodi:ry="75"
           sodipodi:start="5.1529341"
           sodipodi:end="6.2348329"
           d="m 431.98244,712.16105 a 75,75 0 0 1 42.9299,64.21393"
           sodipodi:open="true" />
        <path
           id="path4780"
           style="opacity:1;fill:none;fill-opacity:1;stroke:#e94f3f;stroke-width:8;stroke-linecap:square;stroke-linejoin:miter;stroke-miterlimit:4;stroke-dasharray:none;stroke-opacity:1"
           sodipodi:type="arc"
           sodipodi:cx="400"
           sodipodi:cy="780"
           sodipodi:rx="55"
           sodipodi:ry="55"
           sodipodi:start="5.1825696"
           sodipodi:end="0.002422981"
           d="m 424.9176,730.96824 a 55,55 0 0 1 30.08224,49.16502"
           sodipodi:open="true" />
        <path
           style="opacity:1;fill:none;fill-opacity:1;stroke:#e94f3f;stroke-width:8;stroke-linecap:square;stroke-linejoin:miter;stroke-miterlimit:4;stroke-dasharray:none;stroke-opacity:1"
           id="path4782"
           sodipodi:type="arc"
           sodipodi:cx="400"
           sodipodi:cy="780"
           sodipodi:rx="35"
           sodipodi:ry="35"
           sodipodi:start="5.2213431"
           sodipodi:end="0.042794863"
           d="m 417.05425,749.43609 a 35,35 0 0 1 17.91371,32.06127"
           sodipodi:open="true" />
        <path
           id="path4784"
           style="opacity:1;fill:none;fill-opacity:1;stroke:#e94f3f;stroke-width:8;stroke-linecap:square;stroke-linejoin:miter;stroke-miterlimit:4;stroke-dasharray:none;stroke-opacity:1"
           sodipodi:type="arc"
           sodipodi:cx="400"
           sodipodi:cy="780"
           sodipodi:rx="15"
           sodipodi:ry="15"
           sodipodi:start="4.9085549"
           sodipodi:end="0.20759708"
           sodipodi:open="true"
           d="m 402.92365,765.28768 a 15,15 0 0 1 9.5943,6.44789 15,15 0 0 1 2.15999,11.35607" />
        <path
           id="path4786"
           style="opacity:1;fill:none;fill-opacity:1;stroke:#e94f3f;stroke-width:8;stroke-linecap:square;stroke-linejoin:miter;stroke-miterlimit:4;stroke-dasharray:none;stroke-opacity:1"
           sodipodi:type="arc"
           sodipodi:cx="400"
           sodipodi:cy="780"
           sodipodi:rx="95"
           sodipodi:ry="95"
           sodipodi:start="5.1614145"
           sodipodi:end="6.1701257"
           d="m 441.23835,694.4173 a 95,95 0 0 1 53.15513,74.8649"
           sodipodi:open="true" />
      </g>
      <g
         inkscape:transform-center-y="293.98039"
         inkscape:transform-center-x="-61.366323"
         id="g4788"
         transform="matrix(0.97894069,-0.20414486,0.20414486,0.97894069,-89.874073,11.664503)">
        <path
           sodipodi:open="true"
           style="opacity:1;fill:none;fill-opacity:1;stroke:#e94f3f;stroke-width:8;stroke-linecap:square;stroke-linejoin:miter;stroke-miterlimit:4;stroke-dasharray:none;stroke-opacity:1"
           id="path4790"
           sodipodi:type="arc"
           sodipodi:cx="400"
           sodipodi:cy="780"
           sodipodi:rx="75"
           sodipodi:ry="75"
           sodipodi:start="6.093849"
           sodipodi:end="1.3617285"
           d="m 473.6597,765.88447 a 75,75 0 0 1 -58.09359,87.48239" />
        <path
           sodipodi:open="true"
           id="path4792"
           style="opacity:1;fill:none;fill-opacity:1;stroke:#e94f3f;stroke-width:8;stroke-linecap:square;stroke-linejoin:miter;stroke-miterlimit:4;stroke-dasharray:none;stroke-opacity:1"
           sodipodi:type="arc"
           sodipodi:cx="400"
           sodipodi:cy="780"
           sodipodi:rx="55"
           sodipodi:ry="55"
           sodipodi:start="6.1497412"
           sodipodi:end="1.3178803"
           d="m 454.51102,772.68234 a 55,55 0 0 1 -40.74846,60.56794" />
        <path
           sodipodi:open="true"
           style="opacity:1;fill:none;fill-opacity:1;stroke:#e94f3f;stroke-width:8;stroke-linecap:square;stroke-linejoin:miter;stroke-miterlimit:4;stroke-dasharray:none;stroke-opacity:1"
           id="path4794"
           sodipodi:type="arc"
           sodipodi:cx="400"
           sodipodi:cy="780"
           sodipodi:rx="35"
           sodipodi:ry="35"
           sodipodi:start="6.192725"
           sodipodi:end="1.2602851"
           d="m 434.85689,776.83821 a 35,35 0 0 1 -24.1628,36.488" />
        <path
           id="path4796"
           style="opacity:1;fill:none;fill-opacity:1;stroke:#e94f3f;stroke-width:8;stroke-linecap:square;stroke-linejoin:miter;stroke-miterlimit:4;stroke-dasharray:none;stroke-opacity:1"
           sodipodi:type="arc"
           sodipodi:cx="400"
           sodipodi:cy="780"
           sodipodi:rx="15"
           sodipodi:ry="15"
           sodipodi:start="5.9815812"
           sodipodi:end="1.6392682"
           d="m 414.32292,775.54422 a 15,15 0 0 1 -2.55472,13.75683 15,15 0 0 1 -12.79448,5.6638"
           sodipodi:open="true" />
        <path
           id="path4798"
           style="opacity:1;fill:none;fill-opacity:1;stroke:#e94f3f;stroke-width:8;stroke-linecap:square;stroke-linejoin:miter;stroke-miterlimit:4;stroke-dasharray:none;stroke-opacity:1"
           sodipodi:type="arc"
           sodipodi:cx="400"
           sodipodi:cy="780"
           sodipodi:rx="95"
           sodipodi:ry="95"
           sodipodi:start="6.1013613"
           sodipodi:end="0.97999276"
           sodipodi:open="true"
           d="m 493.43397,762.82174 a 95,95 0 0 1 -40.51626,96.07513" />
      </g>
    </g>
    <use
       x="0"
       y="0"
       xlink:href="#use4772"
       inkscape:transform-center-x="-315.93008"
       inkscape:transform-center-y="118.7238"
       id="use4812"
       width="100%"
       height="100%"
       transform="matrix(0.90996127,-0.41469324,0.41469324,0.90996127,-129.85866,201.89124)" />
    <use
       x="0"
       y="0"
       xlink:href="#use4812"
       inkscape:transform-center-x="-336.78547"
       inkscape:transform-center-y="-31.543497"
       id="use4814"
       transform="matrix(0.90996127,-0.41469324,0.41469324,0.90996127,-129.85865,201.89123)"
       width="100%"
       height="100%" />
    <use
       x="0"
       y="0"
       xlink:href="#use4814"
       inkscape:transform-center-x="-298.70149"
       inkscape:transform-center-y="-168.46908"
       id="use4816"
       transform="matrix(0.90996127,-0.41469324,0.41469324,0.90996127,-129.85865,201.89123)"
       width="100%"
       height="100%" />
    <use
       x="0"
       y="0"
       xlink:href="#use4816"
       inkscape:transform-center-x="-207.44417"
       inkscape:transform-center-y="-274.71851"
       id="use4818"
       transform="matrix(0.90996127,-0.41469324,0.41469324,0.90996127,-129.85865,201.89123)"
       width="100%"
       height="100%" />
    <g
       inkscape:transform-center-y="293.98039"
       inkscape:transform-center-x="-61.366323"
       id="g4836"
       transform="matrix(-0.90175145,-0.4322549,0.4322549,-0.90175145,553.41278,1005.9589)">
      <path
         sodipodi:open="true"
         style="opacity:1;fill:none;fill-opacity:1;stroke:#e94f3f;stroke-width:8;stroke-linecap:square;stroke-linejoin:miter;stroke-miterlimit:4;stroke-dasharray:none;stroke-opacity:1"
         id="path4838"
         sodipodi:type="arc"
         sodipodi:cx="400"
         sodipodi:cy="780"
         sodipodi:rx="75"
         sodipodi:ry="75"
         sodipodi:start="6.093849"
         sodipodi:end="1.3617285"
         d="m 473.6597,765.88447 a 75,75 0 0 1 -58.09359,87.48239" />
      <path
         sodipodi:open="true"
         id="path4840"
         style="opacity:1;fill:none;fill-opacity:1;stroke:#e94f3f;stroke-width:8;stroke-linecap:square;stroke-linejoin:miter;stroke-miterlimit:4;stroke-dasharray:none;stroke-opacity:1"
         sodipodi:type="arc"
         sodipodi:cx="400"
         sodipodi:cy="780"
         sodipodi:rx="55"
         sodipodi:ry="55"
         sodipodi:start="6.1881448"
         sodipodi:end="1.3178803"
         d="m 454.75179,774.78064 a 55,55 0 0 1 -40.98923,58.46964" />
      <path
         sodipodi:open="true"
         style="opacity:1;fill:none;fill-opacity:1;stroke:#e94f3f;stroke-width:8;stroke-linecap:square;stroke-linejoin:miter;stroke-miterlimit:4;stroke-dasharray:none;stroke-opacity:1"
         id="path4842"
         sodipodi:type="arc"
         sodipodi:cx="400"
         sodipodi:cy="780"
         sodipodi:rx="35"
         sodipodi:ry="35"
         sodipodi:start="6.192725"
         sodipodi:end="1.190578"
         d="m 434.85689,776.83821 a 35,35 0 0 1 -21.86758,35.66222" />
      <path
         id="path4844"
         style="opacity:1;fill:none;fill-opacity:1;stroke:#e94f3f;stroke-width:8;stroke-linecap:square;stroke-linejoin:miter;stroke-miterlimit:4;stroke-dasharray:none;stroke-opacity:1"
         sodipodi:type="arc"
         sodipodi:cx="400"
         sodipodi:cy="780"
         sodipodi:rx="15"
         sodipodi:ry="15"
         sodipodi:start="5.9815812"
         sodipodi:end="1.6392682"
         d="m 414.32292,775.54422 a 15,15 0 0 1 -2.55472,13.75683 15,15 0 0 1 -12.79448,5.6638"
         sodipodi:open="true" />
      <path
         id="path4846"
         style="opacity:1;fill:none;fill-opacity:1;stroke:#e94f3f;stroke-width:8;stroke-linecap:square;stroke-linejoin:miter;stroke-miterlimit:4;stroke-dasharray:none;stroke-opacity:1"
         sodipodi:type="arc"
         sodipodi:cx="400"
         sodipodi:cy="780"
         sodipodi:rx="95"
         sodipodi:ry="95"
         sodipodi:start="6.1291587"
         sodipodi:end="0.97195051"
         sodipodi:open="true"
         d="M 493.87533,765.42526 A 95,95 0 0 1 453.5505,858.46874" />
    </g>
    <use
       x="0"
       y="0"
       xlink:href="#g4602"
       inkscape:transform-center-x="130.03692"
       inkscape:transform-center-y="314.89852"
       id="use4860"
       transform="matrix(-1,0,0,1,799.8285,0)"
       width="100%"
       height="100%" />
    <use
       x="0"
       y="0"
       xlink:href="#use4772"
       inkscape:transform-center-x="130.03692"
       inkscape:transform-center-y="314.89852"
       id="use4862"
       transform="matrix(-1,0,0,1,799.8285,0)"
       width="100%"
       height="100%" />
    <use
       x="0"
       y="0"
       xlink:href="#use4812"
       inkscape:transform-center-x="315.93004"
       inkscape:transform-center-y="118.7238"
       id="use4864"
       transform="matrix(-1,0,0,1,799.8285,0)"
       width="100%"
       height="100%" />
    <use
       x="0"
       y="0"
       xlink:href="#use4814"
       inkscape:transform-center-x="336.78543"
       inkscape:transform-center-y="-31.543497"
       id="use4866"
       transform="matrix(-1,0,0,1,799.8285,0)"
       width="100%"
       height="100%" />
    <use
       x="0"
       y="0"
       xlink:href="#use4816"
       inkscape:transform-center-x="298.70145"
       inkscape:transform-center-y="-168.46908"
       id="use4868"
       transform="matrix(-1,0,0,1,799.8285,0)"
       width="100%"
       height="100%" />
    <use
       x="0"
       y="0"
       xlink:href="#use4818"
       inkscape:transform-center-x="207.44413"
       inkscape:transform-center-y="-274.71851"
       id="use4870"
       transform="matrix(-1,0,0,1,799.8285,0)"
       width="100%"
       height="100%" />
    <use
       x="0"
       y="0"
       xlink:href="#g4836"
       inkscape:transform-center-x="61.366286"
       inkscape:transform-center-y="293.98039"
       id="use4872"
       transform="matrix(-1,0,0,1,799.8285,0)"
       width="100%"
       height="100%" />
    <g
       transform="translate(0,-680.5)"
       inkscape:transform-center-y="380.02167"
       inkscape:transform-center-x="0.00032042688"
       id="g4874">
      <path
         style="opacity:1;fill:none;fill-opacity:1;stroke:#e94f3f;stroke-width:8;stroke-linecap:square;stroke-linejoin:miter;stroke-miterlimit:4;stroke-dasharray:none;stroke-opacity:1"
         id="circle4876"
         sodipodi:type="arc"
         sodipodi:cx="400"
         sodipodi:cy="780"
         sodipodi:rx="75"
         sodipodi:ry="75"
         sodipodi:start="3.7358064"
         sodipodi:end="5.7179061"
         d="m 337.85583,738.01069 a 75,75 0 0 1 63.22918,-33.00284 75,75 0 0 1 62.24792,34.81828"
         sodipodi:open="true" />
      <path
         id="circle4878"
         style="opacity:1;fill:none;fill-opacity:1;stroke:#e94f3f;stroke-width:8;stroke-linecap:square;stroke-linejoin:miter;stroke-miterlimit:4;stroke-dasharray:none;stroke-opacity:1"
         sodipodi:type="arc"
         sodipodi:cx="400"
         sodipodi:cy="780"
         sodipodi:rx="55"
         sodipodi:ry="55"
         sodipodi:start="3.656044"
         sodipodi:end="5.8235059"
         d="m 352.11904,752.93685 a 55,55 0 0 1 49.387,-27.91623 55,55 0 0 1 47.78467,30.57804"
         sodipodi:open="true" />
      <path
         style="opacity:1;fill:none;fill-opacity:1;stroke:#e94f3f;stroke-width:8;stroke-linecap:square;stroke-linejoin:miter;stroke-miterlimit:4;stroke-dasharray:none;stroke-opacity:1"
         id="circle4880"
         sodipodi:type="arc"
         sodipodi:cx="400"
         sodipodi:cy="780"
         sodipodi:rx="35"
         sodipodi:ry="35"
         sodipodi:start="3.0172377"
         sodipodi:end="0.12450594"
         d="m 365.27027,784.34121 a 35,35 0 0 1 15.99017,-33.90181 35,35 0 0 1 37.48358,0.003 35,35 0 0 1 15.98505,33.90423"
         sodipodi:open="true" />
      <path
         id="circle4882"
         style="opacity:1;fill:none;fill-opacity:1;stroke:#e94f3f;stroke-width:8;stroke-linecap:square;stroke-linejoin:miter;stroke-miterlimit:4;stroke-dasharray:none;stroke-opacity:1"
         sodipodi:type="arc"
         sodipodi:cx="400"
         sodipodi:cy="780"
         sodipodi:rx="15"
         sodipodi:ry="15"
         sodipodi:start="2.910502"
         sodipodi:end="0.17711444"
         d="m 385.39874,783.43559 a 15,15 0 0 1 5.90258,-15.65577 15,15 0 0 1 16.72542,-0.4515 15,15 0 0 1 6.7386,15.31453"
         sodipodi:open="true" />
      <path
         id="circle4884"
         style="opacity:1;fill:none;fill-opacity:1;stroke:#e94f3f;stroke-width:8;stroke-linecap:square;stroke-linejoin:miter;stroke-miterlimit:4;stroke-dasharray:none;stroke-opacity:1"
         sodipodi:type="arc"
         sodipodi:cx="400"
         sodipodi:cy="780"
         sodipodi:rx="95"
         sodipodi:ry="95"
         sodipodi:start="5.2872152"
         sodipodi:end="5.6893263"
         sodipodi:open="true"
         d="m 451.65045,700.26775 a 95,95 0 0 1 27.08436,26.57372" />
      <path
         style="opacity:1;fill:none;fill-opacity:1;stroke:#e94f3f;stroke-width:8;stroke-linecap:square;stroke-linejoin:miter;stroke-miterlimit:4;stroke-dasharray:none;stroke-opacity:1"
         id="circle4886"
         sodipodi:type="arc"
         sodipodi:cx="400"
         sodipodi:cy="780"
         sodipodi:rx="95"
         sodipodi:ry="95"
         sodipodi:start="3.7352248"
         sodipodi:end="4.1388571"
         d="m 321.25313,726.85933 a 95,95 0 0 1 27.19966,-26.65836"
         sodipodi:open="true" />
    </g>
  </g>
  <g
     inkscape:groupmode="layer"
     id="layer3"
     inkscape:label="uls"
     style="display:inline;opacity:1"
     sodipodi:insensitive="true">
    <path
       style="fill:none;fill-opacity:1;fill-rule:evenodd;stroke:#e94f3f;stroke-width:10;stroke-linecap:round;stroke-linejoin:round;stroke-miterlimit:4;stroke-dasharray:none;stroke-opacity:1"
       d="m 141.10006,259.03406 c -19.78668,7.96181 -39.90092,11.0812 -58.059044,22.58508 -1.769812,5.01602 -7.440671,7.91753 -12.464522,6.08008 -9.196874,-0.50294 -21.303718,-0.75122 -26.34295,8.56094 -5.707746,6.65389 -14.31991,12.97206 -13.901513,22.72031 9.904744,15.07534 18.015488,32.26979 31.730469,44.23047 5.267394,0.43261 12.125547,-2.50946 15.724609,3.21094 4.19934,2.72791 6.835918,8.10267 4.84375,12.90234 0.479565,6.21057 6.644649,9.96211 8.144532,15.59766 -4.243267,4.64424 -4.842623,11.22076 -3.875091,17.08792 -3.722977,3.36947 -10.178832,6.49227 -9.816316,12.88473 2.636496,9.873 4.931979,22.00904 8.625,30.61914 11.263495,3.34552 25.147976,5.60297 25.147976,5.60297"
       id="path9610"
       inkscape:connector-curvature="0" />
    <path
       style="fill:none;fill-opacity:1;fill-rule:evenodd;stroke:#e94f3f;stroke-width:10;stroke-linecap:round;stroke-linejoin:round;stroke-miterlimit:4;stroke-dasharray:none;stroke-opacity:1"
       d="m 695.89143,413.57319 10.68666,-7.31701 c 10.43165,-5.8145 20.09417,-14.27421 31.87503,-16.97493 9.48961,0.10685 20.42337,3.65029 28.58008,-2.95898 3.53411,-9.42854 10.62,-18.76962 7.97852,-29.36329 -15.40048,-13.14662 -33.30689,-23.04809 -50.31836,-33.94336 -9.20912,-2.62485 -18.21408,3.10309 -26.93388,5.26032 -8.07162,2.86861 -16.055,6.07363 -24.3962,8.09906 -5.00466,-2.49384 0.12907,-8.46504 0.29883,-12.50391 3.86968,-14.49202 9.89127,-29.01422 10.21484,-44.07226 -3.47926,-8.34387 -20.36523,-15.63672 -20.36523,-15.63672"
       id="path9590"
       inkscape:connector-curvature="0" />
    <path
       style="fill:url(#radialGradient9586);fill-opacity:1;fill-rule:evenodd;stroke:#ffd201;stroke-width:10;stroke-linecap:round;stroke-linejoin:round;stroke-miterlimit:4;stroke-dasharray:none;stroke-opacity:1"
       d="m 401.43012,565.17402 29.38713,15.7356 53.66449,-28.97749 65.02308,1.00857 25.78209,-37.62537 29.28101,-15.25903 -19.32103,-25.83753 6.05954,-12.7768 10.53118,-5.07057 7.29659,6.17378 28.58744,-1.10321 13.32841,-20.78657 23.12683,-2.06445 15.71599,-31.82204 42.5425,-25.44749 28.15008,0.94165 8.07667,-21.38549 -48.08962,-31.54623 -49.30709,16.2676 -9.75109,-7.02079 15.60175,-56.94639 -15.55443,-10.41694 -15.55443,9.31373 -26.5703,-10.59811 -28.91057,25.74289 -41.73469,19.89224 -45.97785,-1.00857 -34.87546,-21.27125 -79.06465,0.0473 -35.86444,-35.08434 -64.0537,-22.13786 -28.1778,22.34673 4.062,40.72613 -9.42797,9.70377 -7.11543,-5.73641 -53.27444,-6.69767 -4.909,-20.67232 -43.22796,-10.09382 -56.946389,19.56911 -6.859228,10.0269 -28.473198,0.78009 -17.161928,20.28228 26.180256,39.16594 12.044038,-1.33169 15.097468,13.55688 0.114241,12.57605 12.02444,15.64908 -8.90409,7.59198 3.510395,11.70132 -12.690284,8.58096 6.449583,25.90446 44.464996,7.41083 51.87583,31.9836 25.74289,49.53556 82.68929,16.77189 15.21171,-8.58097 31.59355,7.80088 11.70131,11.31127 z"
       id="path4169"
       inkscape:connector-curvature="0" />
  </g>
  <g
     inkscape:groupmode="layer"
     id="layer5"
     inkscape:label="star"
     style="display:inline;opacity:1"
     sodipodi:insensitive="true">
    <g
       id="g4157"
       style="opacity:1;stroke:none;stroke-width:1;stroke-miterlimit:4;stroke-dasharray:none;stroke-opacity:1">
      <path
         sodipodi:nodetypes="ccc"
         inkscape:connector-curvature="0"
         id="path4153"
         d="m 400,400 -45,45 45,225"
         style="fill:#ffd201;fill-opacity:1;fill-rule:evenodd;stroke:#000000;stroke-width:1;stroke-linecap:butt;stroke-linejoin:miter;stroke-miterlimit:4;stroke-dasharray:none;stroke-opacity:1" />
      <path
         style="fill:#f1903b;fill-opacity:1;fill-rule:evenodd;stroke:#000000;stroke-width:1;stroke-linecap:butt;stroke-linejoin:miter;stroke-miterlimit:4;stroke-dasharray:none;stroke-opacity:1"
         d="m 400,400 45,45 -45,225"
         id="path4155"
         inkscape:connector-curvature="0"
         sodipodi:nodetypes="ccc" />
    </g>
    <use
       x="0"
       y="0"
       xlink:href="#g4157"
       id="use4161"
       transform="matrix(0,-1,1,0,0,800)"
       width="100%"
       height="100%" />
    <use
       x="0"
       y="0"
       xlink:href="#use4161"
       id="use4163"
       transform="matrix(0,-1,1,0,0,800)"
       width="100%"
       height="100%" />
    <use
       x="0"
       y="0"
       xlink:href="#use4163"
       id="use4165"
       transform="matrix(0,-1,1,0,0,800)"
       width="100%"
       height="100%" />
  </g>
  <g
     inkscape:groupmode="layer"
     id="layer4"
     inkscape:label="aimag"
     style="display:inline"
     sodipodi:insensitive="true">
    <path
       style="fill:#e52e1b;fill-opacity:1;fill-rule:evenodd;stroke:none;stroke-width:5;stroke-linecap:butt;stroke-linejoin:miter;stroke-miterlimit:4;stroke-dasharray:none;stroke-opacity:1"
       d="m 443.2848,436.08912 19.30717,-8.77599 -0.58506,-7.41083 7.60584,-5.65563 7.50142,-2.01918 2.82292,-4.58792 -9.52262,-15.43038 3.35087,-18.70048 8.59279,-0.75642 3.2346,-8.97101 -4.47368,-12.45774 -16.8743,-16.86449 -24.51564,6.32148 -2.15707,9.22518 -18.09174,5.55119 -17.55197,-8.76416 -25.84531,8.64991 -5.28722,14.75069 2.0408,20.26065 -14.38633,8.97101 0.19502,8.19092 6.21705,10.36962 3.53405,-0.52795 5.83105,7.62462 2.52143,6.5214 8.4194,3.70542 7.02079,-5.46062 11.11624,3.5104 10.53119,-8.58096 9.55608,3.31537 8.77598,0 z"
       id="path4171"
       inkscape:connector-curvature="0"
       sodipodi:nodetypes="cccccccccccccccccccccccccccccccc" />
    <path
       style="color:#000000;font-style:normal;font-variant:normal;font-weight:normal;font-stretch:normal;font-size:medium;line-height:normal;font-family:sans-serif;text-indent:0;text-align:start;text-decoration:none;text-decoration-line:none;text-decoration-style:solid;text-decoration-color:#000000;letter-spacing:normal;word-spacing:normal;text-transform:none;direction:ltr;block-progression:tb;writing-mode:lr-tb;baseline-shift:baseline;text-anchor:start;white-space:normal;clip-rule:nonzero;display:inline;overflow:visible;visibility:visible;opacity:1;isolation:auto;mix-blend-mode:normal;color-interpolation:sRGB;color-interpolation-filters:linearRGB;solid-color:#000000;solid-opacity:1;fill:#ffd201;fill-opacity:1;fill-rule:evenodd;stroke:#c6272e;stroke-width:2;stroke-linecap:butt;stroke-linejoin:miter;stroke-miterlimit:4;stroke-dasharray:none;stroke-dashoffset:0;stroke-opacity:1;color-rendering:auto;image-rendering:auto;shape-rendering:auto;text-rendering:auto;enable-background:accumulate"
       d="m 465.30469,330.57031 -28.50196,7.34961 -2.18164,9.33008 -14.83007,4.55078 -17.59766,-8.78711 -28.83203,9.64844 -6.12695,17.0957 1.90234,18.87891 -14.23242,8.875 0.26367,11.11133 7.89648,13.16992 3.80664,-0.56836 4.27149,5.58594 2.86523,7.41015 11.66211,5.13282 7.2168,-5.61329 11.16601,3.52539 10.48047,-8.54101 8.26953,2.86914 8.23829,0 11.8457,8.52148 1.8457,-0.83984 21.54102,-9.79101 -0.625,-7.92774 5.51758,-4.10352 8.20117,-2.20703 4.68164,-7.60937 -9.95313,-16.12695 2.64258,-14.75 8.1543,-0.7168 4.41992,-12.25977 -5.16406,-14.38086 -18.84375,-18.83203 z m -2.1211,7.77735 14.90625,14.89648 3.78321,10.53516 -2.04883,5.68164 -9.03125,0.79687 -4.06055,22.65039 9.09375,14.73438 -0.96484,1.5664 -6.80274,1.83204 -9.69336,7.20703 0.54493,6.89453 -15.22852,6.92187 -10.38476,-7.4707 -9.31446,0 -10.84375,-3.76172 -10.58008,8.62109 -11.06836,-3.49609 -6.82226,5.30664 -5.17969,-2.27734 -2.17773,-5.63281 -7.38867,-9.66211 -3.26172,0.48632 -4.53711,-7.56835 -0.12696,-5.27149 14.54102,-9.06641 -2.17969,-21.64257 4.44727,-12.40625 22.85742,-7.65039 17.50586,8.74218 21.35351,-6.55273 2.13282,-9.1211 20.52929,-5.29296 z"
       id="path8082"
       inkscape:connector-curvature="0" />
  </g>
</svg>
